<svg
  width="1280"
  height="640"
  viewBox="0 0 1280 640"
  xmlns="http://www.w3.org/2000/svg"
>
  <g opacity="0.8">
    <g clip-path="url(#clip0)">
      <g clip-path="url(#clip1)">
        <path
          d="M85.6374 486.841C85.2837 486.841 84.9446 486.683 84.6945 486.404C84.4444 486.124 84.3039 485.744 84.3039 485.348C84.3039 484.953 84.4444 484.573 84.6945 484.293C84.9446 484.014 85.2837 483.856 85.6374 483.856C90.0494 483.851 94.2794 481.888 97.3992 478.396C100.519 474.905 102.274 470.172 102.279 465.235C102.279 464.839 102.419 464.46 102.669 464.18C102.919 463.9 103.258 463.743 103.612 463.743C103.966 463.743 104.305 463.9 104.555 464.18C104.805 464.46 104.945 464.839 104.945 465.235C104.938 470.963 102.902 476.454 99.2824 480.504C95.663 484.554 90.756 486.833 85.6374 486.841V486.841ZM34.336 264H16.077C15.7234 264 15.3842 263.843 15.1341 263.563C14.8841 263.283 14.7436 262.904 14.7436 262.508C14.7436 262.112 14.8841 261.733 15.1341 261.453C15.3842 261.173 15.7234 261.016 16.077 261.016H34.336C38.4086 261.01 42.313 259.198 45.1928 255.975C48.0725 252.753 49.6924 248.384 49.6971 243.827V179.925C49.7018 174.576 51.6027 169.448 54.9826 165.666C58.3624 161.884 62.9452 159.757 67.725 159.752H90.5088C94.5814 159.746 98.4858 157.934 101.366 154.711C104.245 151.489 105.865 147.12 105.87 142.563V-6.85664C105.87 -7.25237 106.01 -7.63189 106.26 -7.91171C106.51 -8.19154 106.85 -8.34874 107.203 -8.34874C107.557 -8.34874 107.896 -8.19154 108.146 -7.91171C108.396 -7.63189 108.537 -7.25237 108.537 -6.85664V142.582C108.532 147.931 106.631 153.059 103.251 156.841C99.8714 160.623 95.2887 162.75 90.5088 162.756H67.7161C63.6436 162.761 59.7392 164.574 56.8594 167.796C53.9797 171.019 52.3598 175.388 52.3551 179.945V243.847C52.3457 249.19 50.4439 254.312 47.0665 258.089C43.6891 261.867 39.1113 263.992 34.336 264ZM193.814 81.7743H143.784C143.43 81.7743 143.091 81.6171 142.841 81.3373C142.591 81.0575 142.45 80.6779 142.45 80.2822C142.45 79.8865 142.591 79.5069 142.841 79.2271C143.091 78.9473 143.43 78.7901 143.784 78.7901H193.814C194.167 78.7901 194.507 78.9473 194.757 79.2271C195.007 79.5069 195.147 79.8865 195.147 80.2822C195.147 80.6779 195.007 81.0575 194.757 81.3373C194.507 81.6171 194.167 81.7743 193.814 81.7743V81.7743Z"
          fill="#A0AEC0"
        />
        <path
          d="M82.7749 101.967H43.5456C43.1919 101.967 42.8528 101.81 42.6027 101.53C42.3526 101.251 42.2121 100.871 42.2121 100.475C42.2121 100.08 42.3526 99.7001 42.6027 99.4203C42.8528 99.1404 43.1919 98.9832 43.5456 98.9832H82.7749C83.1286 98.9832 83.4678 99.1404 83.7178 99.4203C83.9679 99.7001 84.1084 100.08 84.1084 100.475C84.1084 100.871 83.9679 101.251 83.7178 101.53C83.4678 101.81 83.1286 101.967 82.7749 101.967V101.967ZM132.387 101.967H121.053C120.699 101.967 120.36 101.81 120.11 101.53C119.86 101.251 119.72 100.871 119.72 100.475C119.72 100.08 119.86 99.7001 120.11 99.4203C120.36 99.1404 120.699 98.9832 121.053 98.9832H132.387C132.741 98.9832 133.08 99.1404 133.33 99.4203C133.58 99.7001 133.721 100.08 133.721 100.475C133.721 100.871 133.58 101.251 133.33 101.53C133.08 101.81 132.741 101.967 132.387 101.967V101.967ZM40.5676 41.1593H2.17383C1.82018 41.1593 1.48102 41.002 1.23095 40.7222C0.980888 40.4424 0.840402 40.0629 0.840402 39.6671C0.840402 39.2714 0.980888 38.8919 1.23095 38.6121C1.48102 38.3322 1.82018 38.175 2.17383 38.175H40.5676C40.9212 38.175 41.2604 38.3322 41.5105 38.6121C41.7605 38.8919 41.901 39.2714 41.901 39.6671C41.901 40.0629 41.7605 40.4424 41.5105 40.7222C41.2604 41.002 40.9212 41.1593 40.5676 41.1593V41.1593ZM74.6055 41.1593H54.8886C54.5349 41.1593 54.1958 41.002 53.9457 40.7222C53.6956 40.4424 53.5552 40.0629 53.5552 39.6671C53.5552 39.2714 53.6956 38.8919 53.9457 38.6121C54.1958 38.3322 54.5349 38.175 54.8886 38.175H74.6055C74.9591 38.175 75.2983 38.3322 75.5484 38.6121C75.7984 38.8919 75.9389 39.2714 75.9389 39.6671C75.9389 40.0629 75.7984 40.4424 75.5484 40.7222C75.2983 41.002 74.9591 41.1593 74.6055 41.1593V41.1593ZM155.624 41.1593H130.84C130.487 41.1593 130.148 41.002 129.898 40.7222C129.648 40.4424 129.507 40.0629 129.507 39.6671C129.507 39.2714 129.648 38.8919 129.898 38.6121C130.148 38.3322 130.487 38.175 130.84 38.175H155.624C155.978 38.175 156.317 38.3322 156.567 38.6121C156.817 38.8919 156.958 39.2714 156.958 39.6671C156.958 40.0629 156.817 40.4424 156.567 40.7222C156.317 41.002 155.978 41.1593 155.624 41.1593V41.1593ZM189.218 41.1593H171.874C171.521 41.1593 171.182 41.002 170.932 40.7222C170.681 40.4424 170.541 40.0629 170.541 39.6671C170.541 39.2714 170.681 38.8919 170.932 38.6121C171.182 38.3322 171.521 38.175 171.874 38.175H189.218C189.571 38.175 189.911 38.3322 190.161 38.6121C190.411 38.8919 190.551 39.2714 190.551 39.6671C190.551 40.0629 190.411 40.4424 190.161 40.7222C189.911 41.002 189.571 41.1593 189.218 41.1593V41.1593ZM270.877 41.1593H258.191C257.838 41.1593 257.499 41.002 257.249 40.7222C256.999 40.4424 256.858 40.0629 256.858 39.6671C256.858 39.2714 256.999 38.8919 257.249 38.6121C257.499 38.3322 257.838 38.175 258.191 38.175H270.895C271.248 38.1777 271.586 38.3374 271.835 38.6191C272.083 38.9008 272.221 39.2814 272.219 39.6771C272.217 40.0728 272.074 40.4513 271.822 40.7293C271.571 41.0072 271.23 41.1619 270.877 41.1593V41.1593ZM315.973 41.1593H286.033C285.68 41.1593 285.341 41.002 285.091 40.7222C284.84 40.4424 284.7 40.0629 284.7 39.6671C284.7 39.2714 284.84 38.8919 285.091 38.6121C285.341 38.3322 285.68 38.175 286.033 38.175H315.973C316.327 38.175 316.666 38.3322 316.916 38.6121C317.166 38.8919 317.307 39.2714 317.307 39.6671C317.307 40.0629 317.166 40.4424 316.916 40.7222C316.666 41.002 316.327 41.1593 315.973 41.1593V41.1593ZM63.5558 61.3524H49.7682C49.4146 61.3524 49.0754 61.1952 48.8253 60.9154C48.5753 60.6355 48.4348 60.256 48.4348 59.8603C48.4348 59.4646 48.5753 59.085 48.8253 58.8052C49.0754 58.5254 49.4146 58.3682 49.7682 58.3682H63.5558C63.9095 58.3682 64.2486 58.5254 64.4987 58.8052C64.7488 59.085 64.8893 59.4646 64.8893 59.8603C64.8893 60.256 64.7488 60.6355 64.4987 60.9154C64.2486 61.1952 63.9095 61.3524 63.5558 61.3524ZM93.1845 142.582H76.739C76.3853 142.582 76.0462 142.425 75.7961 142.145C75.546 141.866 75.4055 141.486 75.4055 141.09C75.4055 140.695 75.546 140.315 75.7961 140.035C76.0462 139.755 76.3853 139.598 76.739 139.598H93.1845C93.5382 139.598 93.8774 139.755 94.1274 140.035C94.3775 140.315 94.518 140.695 94.518 141.09C94.518 141.486 94.3775 141.866 94.1274 142.145C93.8774 142.425 93.5382 142.582 93.1845 142.582V142.582ZM73.5654 162.776H26.7266C26.373 162.776 26.0338 162.618 25.7838 162.339C25.5337 162.059 25.3932 161.679 25.3932 161.284C25.3932 160.888 25.5337 160.508 25.7838 160.228C26.0338 159.949 26.373 159.791 26.7266 159.791H73.5654C73.9191 159.791 74.2582 159.949 74.5083 160.228C74.7584 160.508 74.8988 160.888 74.8988 161.284C74.8988 161.679 74.7584 162.059 74.5083 162.339C74.2582 162.618 73.9191 162.776 73.5654 162.776ZM89.4599 122.161H75.9567C75.6031 122.161 75.2639 122.003 75.0138 121.724C74.7638 121.444 74.6233 121.064 74.6233 120.668C74.6233 120.273 74.7638 119.893 75.0138 119.613C75.2639 119.334 75.6031 119.176 75.9567 119.176H89.4599C89.8135 119.176 90.1527 119.334 90.4027 119.613C90.6528 119.893 90.7933 120.273 90.7933 120.668C90.7933 121.064 90.6528 121.444 90.4027 121.724C90.1527 122.003 89.8135 122.161 89.4599 122.161V122.161ZM35.5717 223.614H1.28488C0.931231 223.614 0.592069 223.456 0.342003 223.177C0.0919376 222.897 -0.0485477 222.517 -0.0485477 222.122C-0.0485477 221.726 0.0919376 221.346 0.342003 221.066C0.592069 220.787 0.931231 220.629 1.28488 220.629H35.5984C35.952 220.633 36.2898 220.794 36.5373 221.077C36.7849 221.36 36.922 221.741 36.9184 222.136C36.9149 222.532 36.771 222.91 36.5185 223.187C36.2659 223.464 35.9253 223.618 35.5717 223.614V223.614ZM85.3796 223.614H65.8227C65.469 223.614 65.1299 223.456 64.8798 223.177C64.6297 222.897 64.4892 222.517 64.4892 222.122C64.4892 221.726 64.6297 221.346 64.8798 221.066C65.1299 220.787 65.469 220.629 65.8227 220.629H85.3796C85.7332 220.629 86.0724 220.787 86.3224 221.066C86.5725 221.346 86.713 221.726 86.713 222.122C86.713 222.517 86.5725 222.897 86.3224 223.177C86.0724 223.456 85.7332 223.614 85.3796 223.614ZM168.479 223.614H153.518C153.164 223.614 152.825 223.456 152.575 223.177C152.325 222.897 152.184 222.517 152.184 222.122C152.184 221.726 152.325 221.346 152.575 221.066C152.825 220.787 153.164 220.629 153.518 220.629H168.479C168.832 220.629 169.171 220.787 169.422 221.066C169.672 221.346 169.812 221.726 169.812 222.122C169.812 222.517 169.672 222.897 169.422 223.177C169.171 223.456 168.832 223.614 168.479 223.614V223.614ZM217.869 223.614H183.351C182.997 223.614 182.658 223.456 182.408 223.177C182.158 222.897 182.017 222.517 182.017 222.122C182.017 221.726 182.158 221.346 182.408 221.066C182.658 220.787 182.997 220.629 183.351 220.629H217.86C218.035 220.629 218.208 220.667 218.37 220.741C218.532 220.815 218.68 220.925 218.804 221.063C218.928 221.201 219.027 221.365 219.094 221.546C219.162 221.727 219.197 221.921 219.198 222.117C219.198 222.313 219.164 222.507 219.098 222.688C219.031 222.869 218.934 223.034 218.81 223.173C218.687 223.312 218.54 223.423 218.379 223.498C218.217 223.574 218.044 223.613 217.869 223.614V223.614ZM142.272 243.807H121.542C121.188 243.807 120.849 243.65 120.599 243.37C120.349 243.09 120.209 242.71 120.209 242.315C120.209 241.919 120.349 241.539 120.599 241.26C120.849 240.98 121.188 240.823 121.542 240.823H142.272C142.626 240.823 142.965 240.98 143.215 241.26C143.465 241.539 143.606 241.919 143.606 242.315C143.606 242.71 143.465 243.09 143.215 243.37C142.965 243.65 142.626 243.807 142.272 243.807V243.807ZM108.706 182.999H94.7224C94.3688 182.999 94.0296 182.841 93.7796 182.562C93.5295 182.282 93.389 181.902 93.389 181.506C93.389 181.111 93.5295 180.731 93.7796 180.451C94.0296 180.172 94.3688 180.014 94.7224 180.014H108.706C109.059 180.014 109.398 180.172 109.648 180.451C109.899 180.731 110.039 181.111 110.039 181.506C110.039 181.902 109.899 182.282 109.648 182.562C109.398 182.841 109.059 182.999 108.706 182.999V182.999ZM165.35 182.999H125.053C124.7 182.999 124.361 182.841 124.111 182.562C123.86 182.282 123.72 181.902 123.72 181.506C123.72 181.111 123.86 180.731 124.111 180.451C124.361 180.172 124.7 180.014 125.053 180.014H165.35C165.703 180.014 166.042 180.172 166.292 180.451C166.542 180.731 166.683 181.111 166.683 181.506C166.683 181.902 166.542 182.282 166.292 182.562C166.042 182.841 165.703 182.999 165.35 182.999V182.999ZM199.245 182.999H178.39C178.037 182.999 177.698 182.841 177.448 182.562C177.197 182.282 177.057 181.902 177.057 181.506C177.057 181.111 177.197 180.731 177.448 180.451C177.698 180.172 178.037 180.014 178.39 180.014H199.245C199.599 180.014 199.938 180.172 200.188 180.451C200.438 180.731 200.579 181.111 200.579 181.506C200.579 181.902 200.438 182.282 200.188 182.562C199.938 182.841 199.599 182.999 199.245 182.999V182.999ZM117.817 203.192H65.7782C65.4246 203.192 65.0854 203.035 64.8353 202.755C64.5853 202.475 64.4448 202.095 64.4448 201.7C64.4448 201.304 64.5853 200.924 64.8353 200.645C65.0854 200.365 65.4246 200.208 65.7782 200.208H117.817C118.171 200.208 118.51 200.365 118.76 200.645C119.01 200.924 119.151 201.304 119.151 201.7C119.151 202.095 119.01 202.475 118.76 202.755C118.51 203.035 118.171 203.192 117.817 203.192V203.192ZM181.937 203.192H143.846C143.492 203.192 143.153 203.035 142.903 202.755C142.653 202.475 142.512 202.095 142.512 201.7C142.512 201.304 142.653 200.924 142.903 200.645C143.153 200.365 143.492 200.208 143.846 200.208H181.937C182.291 200.208 182.63 200.365 182.88 200.645C183.13 200.924 183.271 201.304 183.271 201.7C183.271 202.095 183.13 202.475 182.88 202.755C182.63 203.035 182.291 203.192 181.937 203.192ZM245.488 203.192H195.369C195.016 203.192 194.677 203.035 194.427 202.755C194.176 202.475 194.036 202.095 194.036 201.7C194.036 201.304 194.176 200.924 194.427 200.645C194.677 200.365 195.016 200.208 195.369 200.208H245.479C245.655 200.207 245.828 200.245 245.99 200.319C246.152 200.394 246.299 200.503 246.424 200.641C246.548 200.779 246.647 200.943 246.714 201.124C246.782 201.305 246.817 201.499 246.817 201.695C246.818 201.891 246.784 202.085 246.718 202.266C246.651 202.447 246.553 202.612 246.43 202.751C246.307 202.89 246.16 203.001 245.998 203.076C245.837 203.152 245.663 203.191 245.488 203.192ZM26.8778 203.192H7.96089C7.60725 203.192 7.26809 203.035 7.01802 202.755C6.76795 202.475 6.62747 202.095 6.62747 201.7C6.62747 201.304 6.76795 200.924 7.01802 200.645C7.26809 200.365 7.60725 200.208 7.96089 200.208H26.8778C27.2314 200.208 27.5706 200.365 27.8206 200.645C28.0707 200.924 28.2112 201.304 28.2112 201.7C28.2112 202.095 28.0707 202.475 27.8206 202.755C27.5706 203.035 27.2314 203.192 26.8778 203.192ZM61.2624 284.422H29.109C28.7554 284.422 28.4162 284.265 28.1661 283.985C27.9161 283.705 27.7756 283.325 27.7756 282.93C27.7756 282.534 27.9161 282.154 28.1661 281.875C28.4162 281.595 28.7554 281.438 29.109 281.438H61.2624C61.616 281.438 61.9552 281.595 62.2052 281.875C62.4553 282.154 62.5958 282.534 62.5958 282.93C62.5958 283.325 62.4553 283.705 62.2052 283.985C61.9552 284.265 61.616 284.422 61.2624 284.422V284.422ZM102.625 284.422H75.2722C74.9186 284.422 74.5794 284.265 74.3293 283.985C74.0793 283.705 73.9388 283.325 73.9388 282.93C73.9388 282.534 74.0793 282.154 74.3293 281.875C74.5794 281.595 74.9186 281.438 75.2722 281.438H102.625C102.979 281.438 103.318 281.595 103.568 281.875C103.818 282.154 103.959 282.534 103.959 282.93C103.959 283.325 103.818 283.705 103.568 283.985C103.318 284.265 102.979 284.422 102.625 284.422ZM189.449 284.422H158.265C157.911 284.422 157.572 284.265 157.322 283.985C157.072 283.705 156.931 283.325 156.931 282.93C156.931 282.534 157.072 282.154 157.322 281.875C157.572 281.595 157.911 281.438 158.265 281.438H189.449C189.803 281.438 190.142 281.595 190.392 281.875C190.642 282.154 190.782 282.534 190.782 282.93C190.782 283.325 190.642 283.705 190.392 283.985C190.142 284.265 189.803 284.422 189.449 284.422V284.422ZM79.1658 264H57.9821C57.6285 264 57.2893 263.843 57.0392 263.563C56.7892 263.283 56.6487 262.904 56.6487 262.508C56.6487 262.112 56.7892 261.733 57.0392 261.453C57.2893 261.173 57.6285 261.016 57.9821 261.016H79.1658C79.5195 261.016 79.8586 261.173 80.1087 261.453C80.3587 261.733 80.4992 262.112 80.4992 262.508C80.4992 262.904 80.3587 263.283 80.1087 263.563C79.8586 263.843 79.5195 264 79.1658 264V264ZM99.2916 264H89.5132C89.1595 264 88.8204 263.843 88.5703 263.563C88.3202 263.283 88.1798 262.904 88.1798 262.508C88.1798 262.112 88.3202 261.733 88.5703 261.453C88.8204 261.173 89.1595 261.016 89.5132 261.016H99.2916C99.6453 261.016 99.9844 261.173 100.235 261.453C100.485 261.733 100.625 262.112 100.625 262.508C100.625 262.904 100.485 263.283 100.235 263.563C99.9844 263.843 99.6453 264 99.2916 264ZM111.017 365.423H87.193C86.8394 365.423 86.5002 365.266 86.2502 364.986C86.0001 364.706 85.8596 364.327 85.8596 363.931C85.8596 363.535 86.0001 363.156 86.2502 362.876C86.5002 362.596 86.8394 362.439 87.193 362.439H111.026C111.379 362.44 111.718 362.599 111.967 362.88C112.217 363.16 112.356 363.54 112.355 363.936C112.354 364.332 112.212 364.711 111.961 364.99C111.71 365.269 111.371 365.424 111.017 365.423V365.423ZM138.85 385.616H130.974C130.62 385.616 130.281 385.459 130.031 385.179C129.781 384.899 129.64 384.52 129.64 384.124C129.64 383.728 129.781 383.349 130.031 383.069C130.281 382.789 130.62 382.632 130.974 382.632H138.85C139.204 382.632 139.543 382.789 139.793 383.069C140.043 383.349 140.183 383.728 140.183 384.124C140.183 384.52 140.043 384.899 139.793 385.179C139.543 385.459 139.204 385.616 138.85 385.616ZM42.6833 324.808H2.17383C1.82018 324.808 1.48102 324.651 1.23095 324.371C0.980888 324.091 0.840402 323.712 0.840402 323.316C0.840402 322.92 0.980888 322.541 1.23095 322.261C1.48102 321.981 1.82018 321.824 2.17383 321.824H42.71C42.8851 321.826 43.0581 321.866 43.2192 321.943C43.3803 322.02 43.5263 322.132 43.6489 322.271C43.7715 322.411 43.8683 322.577 43.9337 322.759C43.999 322.941 44.0318 323.135 44.03 323.331C44.0283 323.527 43.9921 323.721 43.9234 323.901C43.8548 324.081 43.7551 324.244 43.6301 324.382C43.505 324.519 43.357 324.627 43.1946 324.7C43.0321 324.773 42.8584 324.81 42.6833 324.808V324.808ZM158.629 324.808H143.339C142.985 324.808 142.646 324.651 142.396 324.371C142.146 324.091 142.006 323.712 142.006 323.316C142.006 322.92 142.146 322.541 142.396 322.261C142.646 321.981 142.985 321.824 143.339 321.824H158.629C158.983 321.824 159.322 321.981 159.572 322.261C159.822 322.541 159.962 322.92 159.962 323.316C159.962 323.712 159.822 324.091 159.572 324.371C159.322 324.651 158.983 324.808 158.629 324.808ZM64.747 345.001H46.6213C46.2677 345.001 45.9285 344.844 45.6785 344.564C45.4284 344.284 45.2879 343.905 45.2879 343.509C45.2879 343.113 45.4284 342.734 45.6785 342.454C45.9285 342.174 46.2677 342.017 46.6213 342.017H64.747C65.1007 342.017 65.4398 342.174 65.6899 342.454C65.94 342.734 66.0805 343.113 66.0805 343.509C66.0805 343.905 65.94 344.284 65.6899 344.564C65.4398 344.844 65.1007 345.001 64.747 345.001V345.001ZM111.017 345.001H77.3612C77.0076 345.001 76.6684 344.844 76.4184 344.564C76.1683 344.284 76.0278 343.905 76.0278 343.509C76.0278 343.113 76.1683 342.734 76.4184 342.454C76.6684 342.174 77.0076 342.017 77.3612 342.017H111.017C111.371 342.017 111.71 342.174 111.96 342.454C112.21 342.734 112.35 343.113 112.35 343.509C112.35 343.905 112.21 344.284 111.96 344.564C111.71 344.844 111.371 345.001 111.017 345.001ZM156.549 345.001H134.974C134.62 345.001 134.281 344.844 134.031 344.564C133.781 344.284 133.641 343.905 133.641 343.509C133.641 343.113 133.781 342.734 134.031 342.454C134.281 342.174 134.62 342.017 134.974 342.017H156.549C156.903 342.017 157.242 342.174 157.492 342.454C157.742 342.734 157.882 343.113 157.882 343.509C157.882 343.905 157.742 344.284 157.492 344.564C157.242 344.844 156.903 345.001 156.549 345.001ZM173.021 345.001H165.021C164.667 345.001 164.328 344.844 164.078 344.564C163.828 344.284 163.687 343.905 163.687 343.509C163.687 343.113 163.828 342.734 164.078 342.454C164.328 342.174 164.667 342.017 165.021 342.017H173.021C173.375 342.017 173.714 342.174 173.964 342.454C174.214 342.734 174.355 343.113 174.355 343.509C174.355 343.905 174.214 344.284 173.964 344.564C173.714 344.844 173.375 345.001 173.021 345.001ZM101.505 426.231H65.7427C65.389 426.231 65.0499 426.074 64.7998 425.794C64.5497 425.514 64.4092 425.135 64.4092 424.739C64.4092 424.344 64.5497 423.964 64.7998 423.684C65.0499 423.404 65.389 423.247 65.7427 423.247H101.505C101.859 423.247 102.198 423.404 102.448 423.684C102.698 423.964 102.839 424.344 102.839 424.739C102.839 425.135 102.698 425.514 102.448 425.794C102.198 426.074 101.859 426.231 101.505 426.231ZM50.4794 426.122H16.6993C16.3456 426.122 16.0065 425.965 15.7564 425.685C15.5063 425.405 15.3658 425.026 15.3658 424.63C15.3658 424.234 15.5063 423.855 15.7564 423.575C16.0065 423.295 16.3456 423.138 16.6993 423.138H50.4794C50.833 423.138 51.1722 423.295 51.4223 423.575C51.6723 423.855 51.8128 424.234 51.8128 424.63C51.8128 425.026 51.6723 425.405 51.4223 425.685C51.1722 425.965 50.833 426.122 50.4794 426.122V426.122ZM57.5288 446.424H47.1814C46.8277 446.424 46.4886 446.267 46.2385 445.987C45.9884 445.708 45.848 445.328 45.848 444.932C45.848 444.537 45.9884 444.157 46.2385 443.877C46.4886 443.597 46.8277 443.44 47.1814 443.44H57.5288C57.8824 443.44 58.2216 443.597 58.4716 443.877C58.7217 444.157 58.8622 444.537 58.8622 444.932C58.8622 445.328 58.7217 445.708 58.4716 445.987C58.2216 446.267 57.8824 446.424 57.5288 446.424ZM178.39 446.424H157.891C157.538 446.424 157.198 446.267 156.948 445.987C156.698 445.708 156.558 445.328 156.558 444.932C156.558 444.537 156.698 444.157 156.948 443.877C157.198 443.597 157.538 443.44 157.891 443.44H178.399C178.753 443.442 179.092 443.6 179.341 443.881C179.59 444.162 179.729 444.542 179.728 444.937C179.727 445.333 179.585 445.712 179.335 445.991C179.084 446.27 178.744 446.426 178.39 446.424V446.424ZM66.9872 405.809H52.5418C52.1881 405.809 51.8489 405.652 51.5989 405.372C51.3488 405.093 51.2083 404.713 51.2083 404.317C51.2083 403.922 51.3488 403.542 51.5989 403.262C51.8489 402.982 52.1881 402.825 52.5418 402.825H66.9872C67.3408 402.825 67.68 402.982 67.9301 403.262C68.1801 403.542 68.3206 403.922 68.3206 404.317C68.3206 404.713 68.1801 405.093 67.9301 405.372C67.68 405.652 67.3408 405.809 66.9872 405.809V405.809ZM88.0198 405.809H80.2325C79.8789 405.809 79.5397 405.652 79.2897 405.372C79.0396 405.093 78.8991 404.713 78.8991 404.317C78.8991 403.922 79.0396 403.542 79.2897 403.262C79.5397 402.982 79.8789 402.825 80.2325 402.825H88.0198C88.3734 402.825 88.7126 402.982 88.9626 403.262C89.2127 403.542 89.3532 403.922 89.3532 404.317C89.3532 404.713 89.2127 405.093 88.9626 405.372C88.7126 405.652 88.3734 405.809 88.0198 405.809V405.809ZM170.674 639.99C170.321 639.99 169.982 639.833 169.731 639.553C169.481 639.273 169.341 638.894 169.341 638.498V625.566C169.327 621.019 167.704 616.662 164.827 613.45C161.95 610.239 158.053 608.432 153.989 608.427L81.6282 608.507C79.2607 608.52 76.9141 608.011 74.7224 607.009C72.5307 606.008 70.5367 604.533 68.8544 602.668C67.1721 600.804 65.8344 598.588 64.9176 596.145C64.0009 593.703 63.523 591.082 63.5114 588.433L63.3425 531.733V526.043C63.3449 521.073 61.5859 516.305 58.4514 512.785C55.3168 509.264 51.0625 507.278 46.6213 507.263H19.2683C18.9147 507.263 18.5755 507.105 18.3255 506.826C18.0754 506.546 17.9349 506.166 17.9349 505.77C17.9349 505.375 18.0754 504.995 18.3255 504.715C18.5755 504.436 18.9147 504.278 19.2683 504.278H46.6213C51.7706 504.286 56.707 506.579 60.3481 510.653C63.9892 514.727 66.0378 520.251 66.0449 526.013V531.693L66.2138 588.393C66.2232 592.943 67.8445 597.304 70.7224 600.518C73.6002 603.733 77.4997 605.54 81.566 605.542L153.927 605.463C158.703 605.465 163.284 607.587 166.665 611.363C170.046 615.139 171.952 620.261 171.963 625.606V638.538C171.963 638.933 171.823 639.313 171.573 639.593C171.323 639.873 170.984 640.03 170.63 640.03L170.674 639.99ZM95.3358 507.263H69.7963C69.4426 507.263 69.1035 507.105 68.8534 506.826C68.6033 506.546 68.4628 506.166 68.4628 505.77C68.4628 505.375 68.6033 504.995 68.8534 504.715C69.1035 504.436 69.4426 504.278 69.7963 504.278H95.3358C95.6895 504.278 96.0286 504.436 96.2787 504.715C96.5287 504.995 96.6692 505.375 96.6692 505.77C96.6692 506.166 96.5287 506.546 96.2787 506.826C96.0286 507.105 95.6895 507.263 95.3358 507.263ZM164.985 507.263H108.981C108.628 507.263 108.288 507.105 108.038 506.826C107.788 506.546 107.648 506.166 107.648 505.77C107.648 505.375 107.788 504.995 108.038 504.715C108.288 504.436 108.628 504.278 108.981 504.278H164.985C165.339 504.278 165.678 504.436 165.928 504.715C166.178 504.995 166.318 505.375 166.318 505.77C166.318 506.166 166.178 506.546 165.928 506.826C165.678 507.105 165.339 507.263 164.985 507.263V507.263Z"
          fill="#A0AEC0"
        />
        <path
          d="M52.5417 527.455H40.5676C40.2139 527.455 39.8748 527.297 39.6247 527.018C39.3746 526.738 39.2342 526.358 39.2342 525.963C39.2342 525.567 39.3746 525.187 39.6247 524.907C39.8748 524.628 40.2139 524.47 40.5676 524.47H52.5417C52.8954 524.47 53.2345 524.628 53.4846 524.907C53.7347 525.187 53.8752 525.567 53.8752 525.963C53.8752 526.358 53.7347 526.738 53.4846 527.018C53.2345 527.297 52.8954 527.455 52.5417 527.455ZM128.894 466.646H93.1757C92.822 466.646 92.4828 466.489 92.2328 466.209C91.9827 465.93 91.8422 465.55 91.8422 465.154C91.8422 464.759 91.9827 464.379 92.2328 464.099C92.4828 463.819 92.822 463.662 93.1757 463.662H128.894C129.247 463.662 129.586 463.819 129.837 464.099C130.087 464.379 130.227 464.759 130.227 465.154C130.227 465.55 130.087 465.93 129.837 466.209C129.586 466.489 129.247 466.646 128.894 466.646V466.646ZM31.4203 486.84H2.17383C1.82018 486.84 1.48102 486.682 1.23095 486.403C0.980888 486.123 0.840403 485.743 0.840403 485.348C0.840403 484.952 0.980888 484.572 1.23095 484.292C1.48102 484.013 1.82018 483.855 2.17383 483.855H31.4203C31.7739 483.855 32.1131 484.013 32.3632 484.292C32.6132 484.572 32.7537 484.952 32.7537 485.348C32.7537 485.743 32.6132 486.123 32.3632 486.403C32.1131 486.682 31.7739 486.84 31.4203 486.84ZM113.293 486.84H82.4194C82.0657 486.84 81.7266 486.682 81.4765 486.403C81.2264 486.123 81.0859 485.743 81.0859 485.348C81.0859 484.952 81.2264 484.572 81.4765 484.292C81.7266 484.013 82.0657 483.855 82.4194 483.855H113.293C113.646 483.855 113.985 484.013 114.235 484.292C114.486 484.572 114.626 484.952 114.626 485.348C114.626 485.743 114.486 486.123 114.235 486.403C113.985 486.682 113.646 486.84 113.293 486.84ZM131.783 486.84H125.845C125.491 486.84 125.152 486.682 124.902 486.403C124.652 486.123 124.511 485.743 124.511 485.348C124.511 484.952 124.652 484.572 124.902 484.292C125.152 484.013 125.491 483.855 125.845 483.855H131.783C132.136 483.855 132.476 484.013 132.726 484.292C132.976 484.572 133.116 484.952 133.116 485.348C133.116 485.743 132.976 486.123 132.726 486.403C132.476 486.682 132.136 486.84 131.783 486.84ZM136.21 568.03H107.203C106.85 568.03 106.51 567.873 106.26 567.593C106.01 567.313 105.87 566.934 105.87 566.538C105.87 566.142 106.01 565.763 106.26 565.483C106.51 565.203 106.85 565.046 107.203 565.046H136.21C136.563 565.046 136.903 565.203 137.153 565.483C137.403 565.763 137.543 566.142 137.543 566.538C137.543 566.934 137.403 567.313 137.153 567.593C136.903 567.873 136.563 568.03 136.21 568.03V568.03ZM159.402 568.03H147.366C147.012 568.03 146.673 567.873 146.423 567.593C146.173 567.313 146.033 566.934 146.033 566.538C146.033 566.142 146.173 565.763 146.423 565.483C146.673 565.203 147.012 565.046 147.366 565.046H159.402C159.756 565.046 160.095 565.203 160.345 565.483C160.595 565.763 160.736 566.142 160.736 566.538C160.736 566.934 160.595 567.313 160.345 567.593C160.095 567.873 159.756 568.03 159.402 568.03V568.03ZM121.142 588.263H81.9749C81.6212 588.263 81.2821 588.106 81.032 587.826C80.7819 587.546 80.6415 587.166 80.6415 586.771C80.6415 586.375 80.7819 585.995 81.032 585.716C81.2821 585.436 81.6212 585.279 81.9749 585.279H121.142C121.496 585.279 121.835 585.436 122.085 585.716C122.335 585.995 122.475 586.375 122.475 586.771C122.475 587.166 122.335 587.546 122.085 587.826C121.835 588.106 121.496 588.263 121.142 588.263V588.263ZM25.7755 547.648H-3.66657C-4.02022 547.648 -4.35938 547.491 -4.60945 547.211C-4.85951 546.931 -5 546.551 -5 546.156C-5 545.76 -4.85951 545.38 -4.60945 545.101C-4.35938 544.821 -4.02022 544.664 -3.66657 544.664H25.7755C26.1291 544.664 26.4683 544.821 26.7183 545.101C26.9684 545.38 27.1089 545.76 27.1089 546.156C27.1089 546.551 26.9684 546.931 26.7183 547.211C26.4683 547.491 26.1291 547.648 25.7755 547.648ZM111.515 547.648H94.0824C93.7287 547.648 93.3896 547.491 93.1395 547.211C92.8894 546.931 92.749 546.551 92.749 546.156C92.749 545.76 92.8894 545.38 93.1395 545.101C93.3896 544.821 93.7287 544.664 94.0824 544.664H111.515C111.868 544.664 112.208 544.821 112.458 545.101C112.708 545.38 112.848 545.76 112.848 546.156C112.848 546.551 112.708 546.931 112.458 547.211C112.208 547.491 111.868 547.648 111.515 547.648ZM143.357 547.648H123.702C123.349 547.648 123.009 547.491 122.759 547.211C122.509 546.931 122.369 546.551 122.369 546.156C122.369 545.76 122.509 545.38 122.759 545.101C123.009 544.821 123.349 544.664 123.702 544.664H143.357C143.711 544.664 144.05 544.821 144.3 545.101C144.55 545.38 144.69 545.76 144.69 546.156C144.69 546.551 144.55 546.931 144.3 547.211C144.05 547.491 143.711 547.648 143.357 547.648ZM322.889 588.263H287.456C287.102 588.263 286.763 588.106 286.513 587.826C286.263 587.546 286.122 587.166 286.122 586.771C286.122 586.375 286.263 585.995 286.513 585.716C286.763 585.436 287.102 585.279 287.456 585.279H322.889C323.243 585.279 323.582 585.436 323.832 585.716C324.082 585.995 324.223 586.375 324.223 586.771C324.223 587.166 324.082 587.546 323.832 587.826C323.582 588.106 323.243 588.263 322.889 588.263V588.263ZM1184.48 81.7734H1138.52C1138.17 81.7734 1137.83 81.6162 1137.58 81.3364C1137.33 81.0565 1137.19 80.677 1137.19 80.2813C1137.19 79.8855 1137.33 79.506 1137.58 79.2262C1137.83 78.9464 1138.17 78.7892 1138.52 78.7892H1184.48C1184.83 78.7892 1185.17 78.9464 1185.42 79.2262C1185.67 79.506 1185.81 79.8855 1185.81 80.2813C1185.81 80.677 1185.67 81.0565 1185.42 81.3364C1185.17 81.6162 1184.83 81.7734 1184.48 81.7734ZM1128.18 81.7734H1100.33C1099.98 81.7734 1099.64 81.6162 1099.39 81.3364C1099.14 81.0565 1099 80.677 1099 80.2813C1099 79.8855 1099.14 79.506 1099.39 79.2262C1099.64 78.9464 1099.98 78.7892 1100.33 78.7892H1128.18C1128.53 78.7892 1128.87 78.9464 1129.12 79.2262C1129.37 79.506 1129.51 79.8855 1129.51 80.2813C1129.51 80.677 1129.37 81.0565 1129.12 81.3364C1128.87 81.6162 1128.53 81.7734 1128.18 81.7734V81.7734ZM1057.29 81.7734H1032.09C1031.74 81.7734 1031.4 81.6162 1031.15 81.3364C1030.9 81.0565 1030.76 80.677 1030.76 80.2813C1030.76 79.8855 1030.9 79.506 1031.15 79.2262C1031.4 78.9464 1031.74 78.7892 1032.09 78.7892H1057.29C1057.64 78.7892 1057.98 78.9464 1058.23 79.2262C1058.48 79.506 1058.62 79.8855 1058.62 80.2813C1058.62 80.677 1058.48 81.0565 1058.23 81.3364C1057.98 81.6162 1057.64 81.7734 1057.29 81.7734ZM1280.4 81.7734H1258.26C1257.91 81.7734 1257.57 81.6162 1257.32 81.3364C1257.07 81.0565 1256.93 80.677 1256.93 80.2813C1256.93 79.8855 1257.07 79.506 1257.32 79.2262C1257.57 78.9464 1257.91 78.7892 1258.26 78.7892H1280.43C1280.78 78.7931 1281.12 78.9541 1281.37 79.2368C1281.62 79.5194 1281.75 79.9005 1281.75 80.2962C1281.75 80.6919 1281.6 81.0699 1281.35 81.3469C1281.1 81.6239 1280.76 81.7773 1280.4 81.7734V81.7734ZM1140.03 101.967H1126.16C1125.81 101.967 1125.47 101.809 1125.22 101.529C1124.97 101.25 1124.83 100.87 1124.83 100.474C1124.83 100.079 1124.97 99.6992 1125.22 99.4193C1125.47 99.1395 1125.81 98.9823 1126.16 98.9823H1140.03C1140.38 98.9823 1140.72 99.1395 1140.97 99.4193C1141.22 99.6992 1141.36 100.079 1141.36 100.474C1141.36 100.87 1141.22 101.25 1140.97 101.529C1140.72 101.809 1140.38 101.967 1140.03 101.967V101.967ZM1216.99 41.1583H1160.48C1160.12 41.1583 1159.78 41.0011 1159.53 40.7213C1159.28 40.4415 1159.14 40.062 1159.14 39.6662C1159.14 39.2705 1159.28 38.891 1159.53 38.6111C1159.78 38.3313 1160.12 38.1741 1160.48 38.1741H1217C1217.35 38.1754 1217.69 38.3339 1217.94 38.6147C1218.19 38.8954 1218.33 39.2755 1218.32 39.6712C1218.32 40.0669 1218.18 40.4459 1217.93 40.7248C1217.68 41.0037 1217.34 41.1596 1216.99 41.1583ZM1057.59 41.1583H1043.86C1043.51 41.1583 1043.17 41.0011 1042.92 40.7213C1042.67 40.4415 1042.53 40.062 1042.53 39.6662C1042.53 39.2705 1042.67 38.891 1042.92 38.6111C1043.17 38.3313 1043.51 38.1741 1043.86 38.1741H1057.59C1057.94 38.1741 1058.28 38.3313 1058.53 38.6111C1058.78 38.891 1058.92 39.2705 1058.92 39.6662C1058.92 40.062 1058.78 40.4415 1058.53 40.7213C1058.28 41.0011 1057.94 41.1583 1057.59 41.1583V41.1583ZM1032.08 41.1583H946.079C945.725 41.1583 945.386 41.0011 945.136 40.7213C944.886 40.4415 944.745 40.062 944.745 39.6662C944.745 39.2705 944.886 38.891 945.136 38.6111C945.386 38.3313 945.725 38.1741 946.079 38.1741H1032.08C1032.44 38.1741 1032.78 38.3313 1033.03 38.6111C1033.28 38.891 1033.42 39.2705 1033.42 39.6662C1033.42 40.062 1033.28 40.4415 1033.03 40.7213C1032.78 41.0011 1032.44 41.1583 1032.08 41.1583V41.1583ZM1240.11 41.1583H1228.65C1228.3 41.1583 1227.96 41.0011 1227.71 40.7213C1227.46 40.4415 1227.32 40.062 1227.32 39.6662C1227.32 39.2705 1227.46 38.891 1227.71 38.6111C1227.96 38.3313 1228.3 38.1741 1228.65 38.1741H1240.11C1240.46 38.1741 1240.8 38.3313 1241.05 38.6111C1241.3 38.891 1241.44 39.2705 1241.44 39.6662C1241.44 40.062 1241.3 40.4415 1241.05 40.7213C1240.8 41.0011 1240.46 41.1583 1240.11 41.1583V41.1583ZM1007.8 61.3515H988.02C987.666 61.3515 987.327 61.1943 987.077 60.9144C986.827 60.6346 986.686 60.2551 986.686 59.8594C986.686 59.4636 986.827 59.0841 987.077 58.8043C987.327 58.5245 987.666 58.3673 988.02 58.3673H1007.82C1008.17 58.3699 1008.51 58.5296 1008.76 58.8113C1009.01 59.093 1009.14 59.4736 1009.14 59.8693C1009.14 60.265 1009 60.6435 1008.74 60.9215C1008.49 61.1994 1008.15 61.3541 1007.8 61.3515V61.3515ZM1197 61.3515H1171.14C1170.79 61.3515 1170.45 61.1943 1170.2 60.9144C1169.95 60.6346 1169.81 60.2551 1169.81 59.8594C1169.81 59.4636 1169.95 59.0841 1170.2 58.8043C1170.45 58.5245 1170.79 58.3673 1171.14 58.3673H1197C1197.36 58.3673 1197.7 58.5245 1197.95 58.8043C1198.2 59.0841 1198.34 59.4636 1198.34 59.8594C1198.34 60.2551 1198.2 60.6346 1197.95 60.9144C1197.7 61.1943 1197.36 61.3515 1197 61.3515ZM1170.62 20.9254H1143.4C1143.05 20.9254 1142.71 20.7682 1142.46 20.4884C1142.21 20.2086 1142.07 19.829 1142.07 19.4333C1142.07 19.0376 1142.21 18.6581 1142.46 18.3782C1142.71 18.0984 1143.05 17.9412 1143.4 17.9412H1170.62C1170.97 17.9412 1171.31 18.0984 1171.56 18.3782C1171.81 18.6581 1171.95 19.0376 1171.95 19.4333C1171.95 19.829 1171.81 20.2086 1171.56 20.4884C1171.31 20.7682 1170.97 20.9254 1170.62 20.9254ZM1017.2 20.9254H984.019C983.666 20.9254 983.327 20.7682 983.076 20.4884C982.826 20.2086 982.686 19.829 982.686 19.4333C982.686 19.0376 982.826 18.6581 983.076 18.3782C983.327 18.0984 983.666 17.9412 984.019 17.9412H1017.19C1017.55 17.9399 1017.89 18.0958 1018.14 18.3747C1018.39 18.6536 1018.53 19.0326 1018.53 19.4283C1018.53 19.8241 1018.39 20.2041 1018.15 20.4849C1017.9 20.7656 1017.56 20.9241 1017.2 20.9254V20.9254ZM968.463 20.9254H867.122C866.769 20.9254 866.43 20.7682 866.179 20.4884C865.929 20.2086 865.789 19.829 865.789 19.4333C865.789 19.0376 865.929 18.6581 866.179 18.3782C866.43 18.0984 866.769 17.9412 867.122 17.9412H968.463C968.816 17.9412 969.155 18.0984 969.405 18.3782C969.656 18.6581 969.796 19.0376 969.796 19.4333C969.796 19.829 969.656 20.2086 969.405 20.4884C969.155 20.7682 968.816 20.9254 968.463 20.9254ZM349.496 20.9254H279.526C279.173 20.9254 278.833 20.7682 278.583 20.4884C278.333 20.2086 278.193 19.829 278.193 19.4333C278.193 19.0376 278.333 18.6581 278.583 18.3782C278.833 18.0984 279.173 17.9412 279.526 17.9412H349.522C349.697 17.9432 349.87 17.9837 350.031 18.0605C350.193 18.1373 350.339 18.2488 350.461 18.3888C350.584 18.5287 350.681 18.6943 350.746 18.8761C350.811 19.0579 350.844 19.2523 350.842 19.4482C350.841 19.6442 350.804 19.8378 350.736 20.0181C350.667 20.1984 350.567 20.3618 350.442 20.4989C350.317 20.6361 350.169 20.7444 350.007 20.8175C349.844 20.8907 349.671 20.9274 349.496 20.9254V20.9254ZM399.028 20.9254H361.861C361.507 20.9254 361.168 20.7682 360.918 20.4884C360.668 20.2086 360.527 19.829 360.527 19.4333C360.527 19.0376 360.668 18.6581 360.918 18.3782C361.168 18.0984 361.507 17.9412 361.861 17.9412H399.028C399.381 17.9412 399.721 18.0984 399.971 18.3782C400.221 18.6581 400.361 19.0376 400.361 19.4333C400.361 19.829 400.221 20.2086 399.971 20.4884C399.721 20.7682 399.381 20.9254 399.028 20.9254ZM1179.21 142.582H1171.14C1170.79 142.582 1170.45 142.424 1170.2 142.145C1169.95 141.865 1169.81 141.485 1169.81 141.089C1169.81 140.694 1169.95 140.314 1170.2 140.034C1170.45 139.755 1170.79 139.597 1171.14 139.597H1179.21C1179.56 139.597 1179.9 139.755 1180.15 140.034C1180.4 140.314 1180.54 140.694 1180.54 141.089C1180.54 141.485 1180.4 141.865 1180.15 142.145C1179.9 142.424 1179.56 142.582 1179.21 142.582ZM1225.3 142.582H1193.94C1193.58 142.582 1193.24 142.424 1192.99 142.145C1192.74 141.865 1192.6 141.485 1192.6 141.089C1192.6 140.694 1192.74 140.314 1192.99 140.034C1193.24 139.755 1193.58 139.597 1193.94 139.597H1225.3C1225.65 139.597 1225.99 139.755 1226.24 140.034C1226.49 140.314 1226.63 140.694 1226.63 141.089C1226.63 141.485 1226.49 141.865 1226.24 142.145C1225.99 142.424 1225.65 142.582 1225.3 142.582ZM1142.15 162.775H1120.98C1120.63 162.775 1120.29 162.617 1120.04 162.338C1119.79 162.058 1119.65 161.678 1119.65 161.283C1119.65 160.887 1119.79 160.507 1120.04 160.228C1120.29 159.948 1120.63 159.79 1120.98 159.79H1142.15C1142.5 159.79 1142.84 159.948 1143.09 160.228C1143.34 160.507 1143.48 160.887 1143.48 161.283C1143.48 161.678 1143.34 162.058 1143.09 162.338C1142.84 162.617 1142.5 162.775 1142.15 162.775V162.775ZM1255.9 162.775H1225.45C1225.1 162.775 1224.76 162.617 1224.51 162.338C1224.26 162.058 1224.12 161.678 1224.12 161.283C1224.12 160.887 1224.26 160.507 1224.51 160.228C1224.76 159.948 1225.1 159.79 1225.45 159.79H1255.9C1256.26 159.79 1256.6 159.948 1256.85 160.228C1257.1 160.507 1257.24 160.887 1257.24 161.283C1257.24 161.678 1257.1 162.058 1256.85 162.338C1256.6 162.617 1256.26 162.775 1255.9 162.775ZM1219.74 122.16H1203.36C1203.01 122.16 1202.67 122.002 1202.42 121.723C1202.17 121.443 1202.03 121.063 1202.03 120.668C1202.03 120.272 1202.17 119.892 1202.42 119.612C1202.67 119.333 1203.01 119.175 1203.36 119.175H1219.74C1220.1 119.175 1220.44 119.333 1220.69 119.612C1220.94 119.892 1221.08 120.272 1221.08 120.668C1221.08 121.063 1220.94 121.443 1220.69 121.723C1220.44 122.002 1220.1 122.16 1219.74 122.16ZM1114.62 223.613H1103.58C1103.23 223.613 1102.89 223.456 1102.64 223.176C1102.39 222.896 1102.25 222.516 1102.25 222.121C1102.25 221.725 1102.39 221.345 1102.64 221.066C1102.89 220.786 1103.23 220.629 1103.58 220.629H1114.62C1114.98 220.629 1115.32 220.786 1115.57 221.066C1115.82 221.345 1115.96 221.725 1115.96 222.121C1115.96 222.516 1115.82 222.896 1115.57 223.176C1115.32 223.456 1114.98 223.613 1114.62 223.613ZM1147.82 223.613H1126.33C1125.98 223.613 1125.64 223.456 1125.39 223.176C1125.14 222.896 1125 222.516 1125 222.121C1125 221.725 1125.14 221.345 1125.39 221.066C1125.64 220.786 1125.98 220.629 1126.33 220.629H1147.82C1148.17 220.629 1148.51 220.786 1148.76 221.066C1149.01 221.345 1149.15 221.725 1149.15 222.121C1149.15 222.516 1149.01 222.896 1148.76 223.176C1148.51 223.456 1148.17 223.613 1147.82 223.613ZM1183.81 223.613H1171.14C1170.79 223.613 1170.45 223.456 1170.2 223.176C1169.95 222.896 1169.81 222.516 1169.81 222.121C1169.81 221.725 1169.95 221.345 1170.2 221.066C1170.45 220.786 1170.79 220.629 1171.14 220.629H1183.81C1184.16 220.629 1184.5 220.786 1184.75 221.066C1185 221.345 1185.14 221.725 1185.14 222.121C1185.14 222.516 1185 222.896 1184.75 223.176C1184.5 223.456 1184.16 223.613 1183.81 223.613ZM1230.33 223.613H1197C1196.65 223.613 1196.31 223.456 1196.06 223.176C1195.81 222.896 1195.67 222.516 1195.67 222.121C1195.67 221.725 1195.81 221.345 1196.06 221.066C1196.31 220.786 1196.65 220.629 1197 220.629H1230.33C1230.68 220.629 1231.02 220.786 1231.27 221.066C1231.52 221.345 1231.66 221.725 1231.66 222.121C1231.66 222.516 1231.52 222.896 1231.27 223.176C1231.02 223.456 1230.68 223.613 1230.33 223.613ZM1279.54 223.613H1261.65C1261.29 223.613 1260.95 223.456 1260.7 223.176C1260.45 222.896 1260.31 222.516 1260.31 222.121C1260.31 221.725 1260.45 221.345 1260.7 221.066C1260.95 220.786 1261.29 220.629 1261.65 220.629H1279.54C1279.9 220.629 1280.23 220.786 1280.48 221.066C1280.73 221.345 1280.88 221.725 1280.88 222.121C1280.88 222.516 1280.73 222.896 1280.48 223.176C1280.23 223.456 1279.9 223.613 1279.54 223.613V223.613ZM1240.93 182.998H1203.35C1203 182.998 1202.66 182.84 1202.41 182.561C1202.16 182.281 1202.02 181.901 1202.02 181.506C1202.02 181.11 1202.16 180.73 1202.41 180.45C1202.66 180.171 1203 180.013 1203.35 180.013H1240.93C1241.28 180.013 1241.62 180.171 1241.87 180.45C1242.12 180.73 1242.26 181.11 1242.26 181.506C1242.26 181.901 1242.12 182.281 1241.87 182.561C1241.62 182.84 1241.28 182.998 1240.93 182.998V182.998ZM1196.11 203.191H1170.62C1170.27 203.191 1169.93 203.034 1169.68 202.754C1169.43 202.474 1169.29 202.094 1169.29 201.699C1169.29 201.303 1169.43 200.923 1169.68 200.644C1169.93 200.364 1170.27 200.207 1170.62 200.207H1196.11C1196.47 200.207 1196.81 200.364 1197.06 200.644C1197.31 200.923 1197.45 201.303 1197.45 201.699C1197.45 202.094 1197.31 202.474 1197.06 202.754C1196.81 203.034 1196.47 203.191 1196.11 203.191V203.191ZM1219.74 203.191H1210.36C1210.01 203.191 1209.67 203.034 1209.42 202.754C1209.17 202.474 1209.03 202.094 1209.03 201.699C1209.03 201.303 1209.17 200.923 1209.42 200.644C1209.67 200.364 1210.01 200.207 1210.36 200.207H1219.74C1220.1 200.207 1220.44 200.364 1220.69 200.644C1220.94 200.923 1221.08 201.303 1221.08 201.699C1221.08 202.094 1220.94 202.474 1220.69 202.754C1220.44 203.034 1220.1 203.191 1219.74 203.191ZM1133.02 284.799H1108.92C1108.56 284.799 1108.22 284.642 1107.97 284.362C1107.72 284.082 1107.58 283.703 1107.58 283.307C1107.58 282.911 1107.72 282.532 1107.97 282.252C1108.22 281.972 1108.56 281.815 1108.92 281.815H1132.99C1133.34 281.811 1133.68 281.964 1133.94 282.241C1134.19 282.518 1134.33 282.896 1134.34 283.292C1134.34 283.688 1134.2 284.069 1133.96 284.351C1133.71 284.634 1133.37 284.795 1133.02 284.799V284.799ZM1170.62 284.799H1147.31C1146.96 284.799 1146.62 284.642 1146.37 284.362C1146.12 284.082 1145.98 283.703 1145.98 283.307C1145.98 282.911 1146.12 282.532 1146.37 282.252C1146.62 281.972 1146.96 281.815 1147.31 281.815H1170.62C1170.97 281.815 1171.31 281.972 1171.56 282.252C1171.81 282.532 1171.95 282.911 1171.95 283.307C1171.95 283.703 1171.81 284.082 1171.56 284.362C1171.31 284.642 1170.97 284.799 1170.62 284.799ZM1230.33 284.799H1186.39C1186.04 284.799 1185.7 284.642 1185.45 284.362C1185.2 284.082 1185.06 283.703 1185.06 283.307C1185.06 282.911 1185.2 282.532 1185.45 282.252C1185.7 281.972 1186.04 281.815 1186.39 281.815H1230.33C1230.68 281.815 1231.02 281.972 1231.27 282.252C1231.52 282.532 1231.66 282.911 1231.66 283.307C1231.66 283.703 1231.52 284.082 1231.27 284.362C1231.02 284.642 1230.68 284.799 1230.33 284.799ZM1117.49 304.614H1091.71C1091.35 304.614 1091.01 304.457 1090.76 304.177C1090.51 303.897 1090.37 303.518 1090.37 303.122C1090.37 302.726 1090.51 302.347 1090.76 302.067C1091.01 301.787 1091.35 301.63 1091.71 301.63H1117.49C1117.84 301.63 1118.18 301.787 1118.43 302.067C1118.68 302.347 1118.82 302.726 1118.82 303.122C1118.82 303.518 1118.68 303.897 1118.43 304.177C1118.18 304.457 1117.84 304.614 1117.49 304.614ZM1277.35 324.767H1255.82C1255.46 324.767 1255.12 324.61 1254.87 324.33C1254.62 324.05 1254.48 323.671 1254.48 323.275C1254.48 322.88 1254.62 322.5 1254.87 322.22C1255.12 321.94 1255.46 321.783 1255.82 321.783H1277.35C1277.7 321.783 1278.04 321.94 1278.29 322.22C1278.54 322.5 1278.68 322.88 1278.68 323.275C1278.68 323.671 1278.54 324.05 1278.29 324.33C1278.04 324.61 1277.7 324.767 1277.35 324.767ZM1155.36 263.999H1141.81C1141.45 263.999 1141.12 263.842 1140.87 263.562C1140.62 263.282 1140.47 262.903 1140.47 262.507C1140.47 262.111 1140.62 261.732 1140.87 261.452C1141.12 261.172 1141.45 261.015 1141.81 261.015H1155.32C1155.67 261.008 1156.02 261.159 1156.27 261.434C1156.52 261.709 1156.67 262.086 1156.68 262.482C1156.68 262.878 1156.55 263.26 1156.3 263.544C1156.05 263.829 1155.72 263.992 1155.36 263.999V263.999ZM1195.53 263.999H1169.86C1169.51 263.999 1169.17 263.842 1168.92 263.562C1168.67 263.282 1168.53 262.903 1168.53 262.507C1168.53 262.111 1168.67 261.732 1168.92 261.452C1169.17 261.172 1169.51 261.015 1169.86 261.015H1195.53C1195.88 261.015 1196.22 261.172 1196.47 261.452C1196.72 261.732 1196.86 262.111 1196.86 262.507C1196.86 262.903 1196.72 263.282 1196.47 263.562C1196.22 263.842 1195.88 263.999 1195.53 263.999ZM1282.03 263.999H1255.81C1255.45 263.999 1255.11 263.842 1254.86 263.562C1254.61 263.282 1254.47 262.903 1254.47 262.507C1254.47 262.111 1254.61 261.732 1254.86 261.452C1255.11 261.172 1255.45 261.015 1255.81 261.015H1282.03C1282.38 261.015 1282.72 261.172 1282.97 261.452C1283.22 261.732 1283.36 262.111 1283.36 262.507C1283.36 262.903 1283.22 263.282 1282.97 263.562C1282.72 263.842 1282.38 263.999 1282.03 263.999ZM1185.81 365.422H1148.12C1147.77 365.422 1147.43 365.265 1147.18 364.985C1146.93 364.705 1146.79 364.326 1146.79 363.93C1146.79 363.534 1146.93 363.155 1147.18 362.875C1147.43 362.595 1147.77 362.438 1148.12 362.438H1185.81C1186.16 362.438 1186.5 362.595 1186.75 362.875C1187 363.155 1187.14 363.534 1187.14 363.93C1187.14 364.326 1187 364.705 1186.75 364.985C1186.5 365.265 1186.16 365.422 1185.81 365.422ZM1217.11 365.422H1198.7C1198.35 365.422 1198.01 365.265 1197.76 364.985C1197.51 364.705 1197.37 364.326 1197.37 363.93C1197.37 363.534 1197.51 363.155 1197.76 362.875C1198.01 362.595 1198.35 362.438 1198.7 362.438H1217.08C1217.44 362.434 1217.78 362.587 1218.03 362.864C1218.28 363.142 1218.43 363.519 1218.43 363.915C1218.43 364.311 1218.3 364.692 1218.05 364.975C1217.8 365.257 1217.46 365.418 1217.11 365.422ZM1276.09 385.615H1255.81C1255.45 385.615 1255.11 385.458 1254.86 385.178C1254.61 384.898 1254.47 384.519 1254.47 384.123C1254.47 383.727 1254.61 383.348 1254.86 383.068C1255.11 382.788 1255.45 382.631 1255.81 382.631H1276.09C1276.45 382.631 1276.79 382.788 1277.04 383.068C1277.29 383.348 1277.43 383.727 1277.43 384.123C1277.43 384.519 1277.29 384.898 1277.04 385.178C1276.79 385.458 1276.45 385.615 1276.09 385.615ZM1229.44 324.807H1202.46C1202.11 324.807 1201.77 324.65 1201.52 324.37C1201.27 324.09 1201.13 323.711 1201.13 323.315C1201.13 322.919 1201.27 322.54 1201.52 322.26C1201.77 321.98 1202.11 321.823 1202.46 321.823H1229.44C1229.79 321.823 1230.13 321.98 1230.38 322.26C1230.63 322.54 1230.77 322.919 1230.77 323.315C1230.77 323.711 1230.63 324.09 1230.38 324.37C1230.13 324.65 1229.79 324.807 1229.44 324.807ZM1168.99 345H1160.82C1160.47 345 1160.13 344.843 1159.88 344.563C1159.63 344.283 1159.49 343.904 1159.49 343.508C1159.49 343.112 1159.63 342.733 1159.88 342.453C1160.13 342.173 1160.47 342.016 1160.82 342.016H1168.99C1169.35 342.016 1169.68 342.173 1169.93 342.453C1170.19 342.733 1170.33 343.112 1170.33 343.508C1170.33 343.904 1170.19 344.283 1169.93 344.563C1169.68 344.843 1169.35 345 1168.99 345ZM1198.7 345H1179.93C1179.57 345 1179.23 344.843 1178.98 344.563C1178.73 344.283 1178.59 343.904 1178.59 343.508C1178.59 343.112 1178.73 342.733 1178.98 342.453C1179.23 342.173 1179.57 342.016 1179.93 342.016H1198.7C1199.05 342.016 1199.39 342.173 1199.64 342.453C1199.89 342.733 1200.03 343.112 1200.03 343.508C1200.03 343.904 1199.89 344.283 1199.64 344.563C1199.39 344.843 1199.05 345 1198.7 345ZM1277.12 345H1255.9C1255.55 345 1255.21 344.843 1254.96 344.563C1254.71 344.283 1254.57 343.904 1254.57 343.508C1254.57 343.112 1254.71 342.733 1254.96 342.453C1255.21 342.173 1255.55 342.016 1255.9 342.016H1277.12C1277.48 342.016 1277.82 342.173 1278.07 342.453C1278.32 342.733 1278.46 343.112 1278.46 343.508C1278.46 343.904 1278.32 344.283 1278.07 344.563C1277.82 344.843 1277.48 345 1277.12 345ZM1229.71 426.23H1184.07C1183.71 426.23 1183.38 426.073 1183.13 425.793C1182.88 425.514 1182.74 425.134 1182.74 424.738C1182.74 424.343 1182.88 423.963 1183.13 423.683C1183.38 423.403 1183.71 423.246 1184.07 423.246H1229.71C1230.06 423.246 1230.4 423.403 1230.65 423.683C1230.9 423.963 1231.04 424.343 1231.04 424.738C1231.04 425.134 1230.9 425.514 1230.65 425.793C1230.4 426.073 1230.06 426.23 1229.71 426.23ZM1233.73 446.424H1209.62C1209.26 446.424 1208.92 446.266 1208.67 445.986C1208.42 445.707 1208.28 445.327 1208.28 444.931C1208.28 444.536 1208.42 444.156 1208.67 443.876C1208.92 443.596 1209.26 443.439 1209.62 443.439H1233.73C1234.08 443.439 1234.42 443.596 1234.67 443.876C1234.92 444.156 1235.06 444.536 1235.06 444.931C1235.06 445.327 1234.92 445.707 1234.67 445.986C1234.42 446.266 1234.08 446.424 1233.73 446.424ZM1196.78 405.808H1159.59C1159.23 405.808 1158.89 405.651 1158.64 405.371C1158.39 405.092 1158.25 404.712 1158.25 404.316C1158.25 403.921 1158.39 403.541 1158.64 403.261C1158.89 402.981 1159.23 402.824 1159.59 402.824H1196.78C1197.13 402.824 1197.47 402.981 1197.72 403.261C1197.97 403.541 1198.11 403.921 1198.11 404.316C1198.11 404.712 1197.97 405.092 1197.72 405.371C1197.47 405.651 1197.13 405.808 1196.78 405.808V405.808ZM1229.71 405.808H1218.47C1218.12 405.808 1217.78 405.651 1217.53 405.371C1217.28 405.092 1217.14 404.712 1217.14 404.316C1217.14 403.921 1217.28 403.541 1217.53 403.261C1217.78 402.981 1218.12 402.824 1218.47 402.824H1229.71C1230.06 402.824 1230.4 402.981 1230.65 403.261C1230.9 403.541 1231.04 403.921 1231.04 404.316C1231.04 404.712 1230.9 405.092 1230.65 405.371C1230.4 405.651 1230.06 405.808 1229.71 405.808V405.808ZM1169.08 507.262H1128.19C1127.84 507.262 1127.5 507.104 1127.25 506.825C1127 506.545 1126.86 506.165 1126.86 505.769C1126.86 505.374 1127 504.994 1127.25 504.714C1127.5 504.435 1127.84 504.277 1128.19 504.277H1169.08C1169.43 504.277 1169.77 504.435 1170.02 504.714C1170.27 504.994 1170.41 505.374 1170.41 505.769C1170.41 506.165 1170.27 506.545 1170.02 506.825C1169.77 507.104 1169.43 507.262 1169.08 507.262ZM1232.42 507.262H1181.21C1180.85 507.262 1180.51 507.104 1180.26 506.825C1180.01 506.545 1179.87 506.165 1179.87 505.769C1179.87 505.374 1180.01 504.994 1180.26 504.714C1180.51 504.435 1180.85 504.277 1181.21 504.277H1232.42C1232.77 504.277 1233.11 504.435 1233.36 504.714C1233.61 504.994 1233.75 505.374 1233.75 505.769C1233.75 506.165 1233.61 506.545 1233.36 506.825C1233.11 507.104 1232.77 507.262 1232.42 507.262ZM1130.46 527.455H1080.15C1079.8 527.455 1079.46 527.297 1079.21 527.018C1078.96 526.738 1078.82 526.358 1078.82 525.963C1078.82 525.567 1078.96 525.187 1079.21 524.907C1079.46 524.628 1079.8 524.47 1080.15 524.47H1130.46C1130.81 524.47 1131.15 524.628 1131.4 524.907C1131.65 525.187 1131.79 525.567 1131.79 525.963C1131.79 526.358 1131.65 526.738 1131.4 527.018C1131.15 527.297 1130.81 527.455 1130.46 527.455ZM1170.82 527.455H1144.47C1144.12 527.455 1143.78 527.297 1143.53 527.018C1143.28 526.738 1143.14 526.358 1143.14 525.963C1143.14 525.567 1143.28 525.187 1143.53 524.907C1143.78 524.628 1144.12 524.47 1144.47 524.47H1170.81C1170.98 524.469 1171.15 524.506 1171.32 524.58C1171.48 524.654 1171.63 524.763 1171.75 524.9C1171.88 525.038 1171.97 525.202 1172.04 525.382C1172.11 525.563 1172.15 525.757 1172.15 525.953C1172.15 526.149 1172.12 526.343 1172.05 526.524C1171.98 526.706 1171.89 526.871 1171.76 527.011C1171.64 527.15 1171.49 527.261 1171.33 527.337C1171.17 527.413 1171 527.453 1170.82 527.455V527.455ZM1150.18 466.646H1137.63C1137.28 466.646 1136.94 466.489 1136.69 466.209C1136.44 465.93 1136.3 465.55 1136.3 465.154C1136.3 464.759 1136.44 464.379 1136.69 464.099C1136.94 463.819 1137.28 463.662 1137.63 463.662H1150.18C1150.54 463.662 1150.87 463.819 1151.12 464.099C1151.37 464.379 1151.52 464.759 1151.52 465.154C1151.52 465.55 1151.37 465.93 1151.12 466.209C1150.87 466.489 1150.54 466.646 1150.18 466.646V466.646ZM1278.56 466.646H1258.26C1257.91 466.646 1257.57 466.489 1257.32 466.209C1257.07 465.93 1256.93 465.55 1256.93 465.154C1256.93 464.759 1257.07 464.379 1257.32 464.099C1257.57 463.819 1257.91 463.662 1258.26 463.662H1278.58C1278.94 463.666 1279.27 463.827 1279.52 464.11C1279.77 464.392 1279.91 464.774 1279.9 465.169C1279.9 465.565 1279.75 465.943 1279.5 466.22C1279.25 466.497 1278.91 466.65 1278.56 466.646V466.646ZM1172.57 486.84H1142.75C1142.4 486.84 1142.06 486.682 1141.81 486.403C1141.56 486.123 1141.42 485.743 1141.42 485.348C1141.42 484.952 1141.56 484.572 1141.81 484.292C1142.06 484.013 1142.4 483.855 1142.75 483.855H1172.57C1172.93 483.855 1173.27 484.013 1173.52 484.292C1173.77 484.572 1173.91 484.952 1173.91 485.348C1173.91 485.743 1173.77 486.123 1173.52 486.403C1173.27 486.682 1172.93 486.84 1172.57 486.84ZM1203.35 486.84H1190.61C1190.26 486.84 1189.92 486.682 1189.67 486.403C1189.42 486.123 1189.28 485.743 1189.28 485.348C1189.28 484.952 1189.42 484.572 1189.67 484.292C1189.92 484.013 1190.26 483.855 1190.61 483.855H1203.35C1203.7 483.855 1204.04 484.013 1204.29 484.292C1204.54 484.572 1204.68 484.952 1204.68 485.348C1204.68 485.743 1204.54 486.123 1204.29 486.403C1204.04 486.682 1203.7 486.84 1203.35 486.84ZM1069.38 588.263H1054.69C1054.34 588.263 1054 588.106 1053.75 587.826C1053.5 587.546 1053.36 587.166 1053.36 586.771C1053.36 586.375 1053.5 585.995 1053.75 585.716C1054 585.436 1054.34 585.279 1054.69 585.279H1069.36C1069.53 585.277 1069.71 585.315 1069.87 585.388C1070.03 585.462 1070.18 585.571 1070.3 585.709C1070.43 585.846 1070.53 586.01 1070.6 586.191C1070.66 586.371 1070.7 586.565 1070.7 586.761C1070.7 586.957 1070.67 587.151 1070.6 587.333C1070.54 587.514 1070.44 587.679 1070.32 587.819C1070.19 587.958 1070.05 588.069 1069.89 588.145C1069.72 588.222 1069.55 588.262 1069.38 588.263V588.263ZM1246.07 588.263H1214.44C1214.09 588.263 1213.75 588.106 1213.5 587.826C1213.25 587.546 1213.11 587.166 1213.11 586.771C1213.11 586.375 1213.25 585.995 1213.5 585.716C1213.75 585.436 1214.09 585.279 1214.44 585.279H1246.07C1246.43 585.279 1246.77 585.436 1247.02 585.716C1247.27 585.995 1247.41 586.375 1247.41 586.771C1247.41 587.166 1247.27 587.546 1247.02 587.826C1246.77 588.106 1246.43 588.263 1246.07 588.263V588.263ZM1276.35 588.263H1259.29C1258.94 588.263 1258.6 588.106 1258.35 587.826C1258.1 587.546 1257.96 587.166 1257.96 586.771C1257.96 586.375 1258.1 585.995 1258.35 585.716C1258.6 585.436 1258.94 585.279 1259.29 585.279H1276.35C1276.7 585.279 1277.04 585.436 1277.29 585.716C1277.54 585.995 1277.68 586.375 1277.68 586.771C1277.68 587.166 1277.54 587.546 1277.29 587.826C1277.04 588.106 1276.7 588.263 1276.35 588.263V588.263ZM1200.1 608.456H1188.15C1187.8 608.456 1187.46 608.299 1187.21 608.019C1186.96 607.739 1186.82 607.36 1186.82 606.964C1186.82 606.568 1186.96 606.189 1187.21 605.909C1187.46 605.629 1187.8 605.472 1188.15 605.472H1200.1C1200.45 605.472 1200.79 605.629 1201.04 605.909C1201.29 606.189 1201.43 606.568 1201.43 606.964C1201.43 607.36 1201.29 607.739 1201.04 608.019C1200.79 608.299 1200.45 608.456 1200.1 608.456V608.456ZM1174.09 608.456H1150.98C1150.63 608.456 1150.29 608.299 1150.04 608.019C1149.79 607.739 1149.65 607.36 1149.65 606.964C1149.65 606.568 1149.79 606.189 1150.04 605.909C1150.29 605.629 1150.63 605.472 1150.98 605.472H1174.09C1174.45 605.472 1174.79 605.629 1175.04 605.909C1175.29 606.189 1175.43 606.568 1175.43 606.964C1175.43 607.36 1175.29 607.739 1175.04 608.019C1174.79 608.299 1174.45 608.456 1174.09 608.456V608.456ZM1017.48 608.456H998.109C997.756 608.456 997.416 608.299 997.166 608.019C996.916 607.739 996.776 607.36 996.776 606.964C996.776 606.568 996.916 606.189 997.166 605.909C997.416 605.629 997.756 605.472 998.109 605.472H1017.48C1017.83 605.472 1018.17 605.629 1018.42 605.909C1018.67 606.189 1018.81 606.568 1018.81 606.964C1018.81 607.36 1018.67 607.739 1018.42 608.019C1018.17 608.299 1017.83 608.456 1017.48 608.456ZM988.02 608.456H932.016C931.662 608.456 931.323 608.299 931.073 608.019C930.823 607.739 930.682 607.36 930.682 606.964C930.682 606.568 930.823 606.189 931.073 605.909C931.323 605.629 931.662 605.472 932.016 605.472H988.02C988.373 605.472 988.712 605.629 988.962 605.909C989.212 606.189 989.353 606.568 989.353 606.964C989.353 607.36 989.212 607.739 988.962 608.019C988.712 608.299 988.373 608.456 988.02 608.456ZM1077.61 608.456H1032.7C1032.34 608.456 1032.01 608.299 1031.76 608.019C1031.51 607.739 1031.36 607.36 1031.36 606.964C1031.36 606.568 1031.51 606.189 1031.76 605.909C1032.01 605.629 1032.34 605.472 1032.7 605.472H1077.61C1077.96 605.472 1078.3 605.629 1078.55 605.909C1078.8 606.189 1078.94 606.568 1078.94 606.964C1078.94 607.36 1078.8 607.739 1078.55 608.019C1078.3 608.299 1077.96 608.456 1077.61 608.456ZM1227.37 628.659H1168.75C1168.4 628.659 1168.06 628.502 1167.81 628.222C1167.56 627.942 1167.42 627.563 1167.42 627.167C1167.42 626.771 1167.56 626.392 1167.81 626.112C1168.06 625.832 1168.4 625.675 1168.75 625.675H1227.37C1227.72 625.675 1228.06 625.832 1228.31 626.112C1228.56 626.392 1228.7 626.771 1228.7 627.167C1228.7 627.563 1228.56 627.942 1228.31 628.222C1228.06 628.502 1227.72 628.659 1227.37 628.659ZM1048.91 628.659H1016.33C1015.98 628.659 1015.64 628.502 1015.39 628.222C1015.14 627.942 1015 627.563 1015 627.167C1015 626.771 1015.14 626.392 1015.39 626.112C1015.64 625.832 1015.98 625.675 1016.33 625.675H1048.91C1049.27 625.675 1049.61 625.832 1049.86 626.112C1050.11 626.392 1050.25 626.771 1050.25 627.167C1050.25 627.563 1050.11 627.942 1049.86 628.222C1049.61 628.502 1049.27 628.659 1048.91 628.659V628.659ZM953.422 628.659H936.647C936.294 628.659 935.954 628.502 935.704 628.222C935.454 627.942 935.314 627.563 935.314 627.167C935.314 626.771 935.454 626.392 935.704 626.112C935.954 625.832 936.294 625.675 936.647 625.675H953.422C953.775 625.675 954.114 625.832 954.365 626.112C954.615 626.392 954.755 626.771 954.755 627.167C954.755 627.563 954.615 627.942 954.365 628.222C954.114 628.502 953.775 628.659 953.422 628.659ZM925.046 628.659H864.713C864.36 628.659 864.02 628.502 863.77 628.222C863.52 627.942 863.38 627.563 863.38 627.167C863.38 626.771 863.52 626.392 863.77 626.112C864.02 625.832 864.36 625.675 864.713 625.675H925.055C925.23 625.675 925.404 625.715 925.565 625.79C925.727 625.866 925.873 625.976 925.997 626.115C926.12 626.254 926.218 626.419 926.284 626.601C926.351 626.782 926.385 626.976 926.384 627.172C926.384 627.368 926.349 627.562 926.281 627.743C926.213 627.923 926.115 628.087 925.991 628.226C925.866 628.364 925.719 628.473 925.557 628.547C925.395 628.622 925.221 628.66 925.046 628.659V628.659ZM281.464 608.456H266.645C266.292 608.456 265.953 608.299 265.703 608.019C265.452 607.739 265.312 607.36 265.312 606.964C265.312 606.568 265.452 606.189 265.703 605.909C265.953 605.629 266.292 605.472 266.645 605.472H281.455C281.809 605.47 282.149 605.626 282.399 605.905C282.65 606.184 282.792 606.563 282.793 606.959C282.794 607.355 282.655 607.735 282.406 608.015C282.157 608.296 281.818 608.455 281.464 608.456V608.456ZM52.3551 608.456H34.7272C34.3735 608.456 34.0344 608.299 33.7843 608.019C33.5342 607.739 33.3938 607.36 33.3938 606.964C33.3938 606.568 33.5342 606.189 33.7843 605.909C34.0344 605.629 34.3735 605.472 34.7272 605.472H52.3551C52.7087 605.472 53.0479 605.629 53.2979 605.909C53.548 606.189 53.6885 606.568 53.6885 606.964C53.6885 607.36 53.548 607.739 53.2979 608.019C53.0479 608.299 52.7087 608.456 52.3551 608.456ZM308.035 608.456H292.203C291.849 608.456 291.51 608.299 291.26 608.019C291.01 607.739 290.869 607.36 290.869 606.964C290.869 606.568 291.01 606.189 291.26 605.909C291.51 605.629 291.849 605.472 292.203 605.472H308.035C308.389 605.472 308.728 605.629 308.978 605.909C309.228 606.189 309.368 606.568 309.368 606.964C309.368 607.36 309.228 607.739 308.978 608.019C308.728 608.299 308.389 608.456 308.035 608.456ZM308.728 628.659H250.111C249.757 628.659 249.418 628.502 249.168 628.222C248.918 627.942 248.778 627.563 248.778 627.167C248.778 626.771 248.918 626.392 249.168 626.112C249.418 625.832 249.757 625.675 250.111 625.675H308.728C309.082 625.675 309.421 625.832 309.671 626.112C309.921 626.392 310.062 626.771 310.062 627.167C310.062 627.563 309.921 627.942 309.671 628.222C309.421 628.502 309.082 628.659 308.728 628.659ZM236.946 628.659H183.137C182.784 628.659 182.445 628.502 182.195 628.222C181.944 627.942 181.804 627.563 181.804 627.167C181.804 626.771 181.944 626.392 182.195 626.112C182.445 625.832 182.784 625.675 183.137 625.675H236.946C237.299 625.675 237.638 625.832 237.888 626.112C238.138 626.392 238.279 626.771 238.279 627.167C238.279 627.563 238.138 627.942 237.888 628.222C237.638 628.502 237.299 628.659 236.946 628.659V628.659ZM158.309 628.659H144.21C143.857 628.659 143.517 628.502 143.267 628.222C143.017 627.942 142.877 627.563 142.877 627.167C142.877 626.771 143.017 626.392 143.267 626.112C143.517 625.832 143.857 625.675 144.21 625.675H158.3C158.475 625.674 158.649 625.712 158.811 625.787C158.973 625.861 159.12 625.97 159.244 626.108C159.369 626.246 159.467 626.411 159.535 626.591C159.602 626.772 159.637 626.966 159.638 627.162C159.639 627.358 159.605 627.552 159.538 627.733C159.472 627.915 159.374 628.079 159.251 628.218C159.127 628.358 158.981 628.468 158.819 628.544C158.657 628.619 158.484 628.658 158.309 628.659V628.659ZM81.9749 628.659H17.9705C17.6168 628.659 17.2777 628.502 17.0276 628.222C16.7775 627.942 16.637 627.563 16.637 627.167C16.637 626.771 16.7775 626.392 17.0276 626.112C17.2777 625.832 17.6168 625.675 17.9705 625.675H81.9749C82.3285 625.675 82.6677 625.832 82.9178 626.112C83.1678 626.392 83.3083 626.771 83.3083 627.167C83.3083 627.563 83.1678 627.942 82.9178 628.222C82.6677 628.502 82.3285 628.659 81.9749 628.659V628.659ZM380.44 628.659H321.894C321.54 628.659 321.201 628.502 320.951 628.222C320.701 627.942 320.56 627.563 320.56 627.167C320.56 626.771 320.701 626.392 320.951 626.112C321.201 625.832 321.54 625.675 321.894 625.675H380.44C380.794 625.675 381.133 625.832 381.383 626.112C381.633 626.392 381.773 626.771 381.773 627.167C381.773 627.563 381.633 627.942 381.383 628.222C381.133 628.502 380.794 628.659 380.44 628.659V628.659ZM1128.18 547.648H1116.37C1116.01 547.648 1115.67 547.491 1115.42 547.211C1115.17 546.931 1115.03 546.551 1115.03 546.156C1115.03 545.76 1115.17 545.38 1115.42 545.101C1115.67 544.821 1116.01 544.664 1116.37 544.664H1128.18C1128.53 544.664 1128.87 544.821 1129.12 545.101C1129.37 545.38 1129.51 545.76 1129.51 546.156C1129.51 546.551 1129.37 546.931 1129.12 547.211C1128.87 547.491 1128.53 547.648 1128.18 547.648V547.648ZM1127.02 608.456H1099.97C1099.62 608.456 1099.28 608.299 1099.03 608.019C1098.78 607.739 1098.64 607.36 1098.64 606.964C1098.64 606.568 1098.78 606.189 1099.03 605.909C1099.28 605.629 1099.62 605.472 1099.97 605.472H1127.02C1131.09 605.466 1134.99 603.654 1137.87 600.431C1140.75 597.209 1142.37 592.84 1142.38 588.283V564.827C1142.38 559.478 1144.28 554.35 1147.66 550.568C1151.04 546.786 1155.62 544.659 1160.4 544.654H1277.12C1277.48 544.654 1277.82 544.811 1278.07 545.091C1278.32 545.371 1278.46 545.75 1278.46 546.146C1278.46 546.542 1278.32 546.921 1278.07 547.201C1277.82 547.481 1277.48 547.638 1277.12 547.638H1160.4C1156.33 547.643 1152.43 549.456 1149.55 552.678C1146.67 555.901 1145.05 560.27 1145.04 564.827V588.283C1145.04 593.631 1143.14 598.76 1139.76 602.542C1136.38 606.324 1131.8 608.451 1127.02 608.456ZM125.365 61.4609C120.198 61.4582 115.244 59.1618 111.589 55.0757C107.934 50.9895 105.877 45.4475 105.87 39.6662C105.87 39.2705 106.01 38.891 106.26 38.6111C106.51 38.3313 106.85 38.1741 107.203 38.1741C107.557 38.1741 107.896 38.3313 108.146 38.6111C108.396 38.891 108.537 39.2705 108.537 39.6662C108.541 44.6534 110.314 49.4349 113.465 52.9614C116.617 56.4879 120.89 58.4714 125.347 58.4767H206.988C211.061 58.4714 214.965 56.6587 217.845 53.4363C220.724 50.2139 222.344 45.8448 222.349 41.2876V-8.44913C222.349 -8.84486 222.489 -9.22438 222.74 -9.50421C222.99 -9.78403 223.329 -9.94123 223.682 -9.94123C224.036 -9.94123 224.375 -9.78403 224.625 -9.50421C224.875 -9.22438 225.016 -8.84486 225.016 -8.44913V41.2876C225.011 46.6363 223.11 51.7644 219.73 55.5465C216.351 59.3285 211.768 61.4556 206.988 61.4609H129.249H125.365Z"
          fill="#A0AEC0"
        />
        <path
          d="M164.327 573.054C163.183 573.054 162.064 572.675 161.112 571.963C160.16 571.251 159.419 570.24 158.981 569.057C158.543 567.874 158.428 566.572 158.651 565.315C158.875 564.059 159.426 562.905 160.235 562C161.044 561.094 162.076 560.477 163.198 560.227C164.321 559.978 165.484 560.106 166.542 560.596C167.599 561.086 168.503 561.916 169.139 562.981C169.775 564.046 170.114 565.298 170.114 566.579C170.112 568.295 169.501 569.941 168.417 571.155C167.332 572.369 165.861 573.052 164.327 573.054V573.054ZM164.327 563.107C163.71 563.107 163.107 563.312 162.594 563.695C162.081 564.079 161.681 564.624 161.445 565.262C161.208 565.9 161.147 566.602 161.267 567.28C161.387 567.957 161.685 568.579 162.121 569.067C162.557 569.556 163.113 569.888 163.718 570.023C164.324 570.158 164.951 570.089 165.521 569.824C166.091 569.56 166.579 569.113 166.922 568.538C167.264 567.964 167.447 567.289 167.447 566.599C167.453 566.136 167.377 565.677 167.223 565.247C167.069 564.818 166.84 564.427 166.549 564.097C166.259 563.768 165.913 563.506 165.532 563.328C165.15 563.149 164.741 563.057 164.327 563.057V563.107ZM45.1546 390.6C44.01 390.6 42.8911 390.22 41.9394 389.509C40.9878 388.797 40.246 387.786 39.808 386.602C39.37 385.419 39.2554 384.117 39.4787 382.861C39.702 381.605 40.2532 380.451 41.0625 379.545C41.8718 378.64 42.903 378.023 44.0256 377.773C45.1481 377.523 46.3117 377.651 47.3692 378.141C48.4266 378.632 49.3304 379.462 49.9663 380.527C50.6022 381.591 50.9416 382.843 50.9416 384.124C50.9393 385.841 50.3288 387.486 49.244 388.7C48.1593 389.914 46.6887 390.597 45.1546 390.6V390.6ZM45.1546 380.653C44.5374 380.653 43.9342 380.857 43.4211 381.241C42.9079 381.625 42.508 382.17 42.2719 382.808C42.0357 383.446 41.9739 384.148 42.0943 384.825C42.2147 385.503 42.5119 386.125 42.9482 386.613C43.3846 387.101 43.9406 387.434 44.5458 387.569C45.1511 387.703 45.7785 387.634 46.3486 387.37C46.9188 387.106 47.4061 386.658 47.7489 386.084C48.0918 385.51 48.2748 384.835 48.2748 384.144C48.2759 383.685 48.1961 383.23 48.0398 382.805C47.8835 382.38 47.6539 381.994 47.364 381.669C47.0742 381.344 46.7298 381.085 46.3507 380.909C45.9715 380.733 45.5651 380.643 45.1546 380.643V380.653ZM122.271 208.175C121.126 208.175 120.008 207.796 119.056 207.084C118.104 206.372 117.362 205.361 116.924 204.178C116.486 202.995 116.372 201.692 116.595 200.436C116.818 199.18 117.37 198.026 118.179 197.121C118.988 196.215 120.019 195.598 121.142 195.348C122.265 195.098 123.428 195.227 124.486 195.717C125.543 196.207 126.447 197.037 127.083 198.102C127.719 199.167 128.058 200.419 128.058 201.7C128.056 203.416 127.445 205.062 126.36 206.276C125.276 207.49 123.805 208.173 122.271 208.175V208.175ZM122.271 198.228C121.654 198.228 121.051 198.433 120.537 198.816C120.024 199.2 119.624 199.745 119.388 200.383C119.152 201.021 119.09 201.723 119.211 202.401C119.331 203.078 119.628 203.7 120.065 204.188C120.501 204.677 121.057 205.009 121.662 205.144C122.268 205.279 122.895 205.21 123.465 204.945C124.035 204.681 124.522 204.234 124.865 203.659C125.208 203.085 125.391 202.41 125.391 201.72C125.394 201.259 125.315 200.803 125.159 200.377C125.003 199.951 124.774 199.564 124.484 199.238C124.194 198.911 123.849 198.653 123.469 198.476C123.089 198.299 122.682 198.208 122.271 198.208V198.228ZM87.8775 284.332C87.524 284.332 87.185 284.175 86.9352 283.895L68.8006 263.642C68.5651 263.359 68.4369 262.985 68.443 262.598C68.4491 262.212 68.589 261.843 68.8333 261.57C69.0776 261.296 69.4072 261.14 69.7527 261.133C70.0981 261.126 70.4324 261.269 70.6852 261.533L88.8198 281.826C88.9943 282.036 89.1109 282.298 89.1556 282.581C89.2003 282.864 89.1711 283.155 89.0717 283.419C88.9722 283.684 88.8066 283.911 88.5948 284.073C88.383 284.235 88.134 284.325 87.8775 284.332V284.332ZM298.603 40.9504C298.34 40.9501 298.082 40.8624 297.863 40.6985C297.644 40.5345 297.473 40.3016 297.372 40.0291C297.271 39.7566 297.245 39.4568 297.296 39.1675C297.348 38.8783 297.475 38.6125 297.661 38.4038L315.529 18.4096C315.782 18.1461 316.116 18.0026 316.461 18.0094C316.807 18.0162 317.136 18.1728 317.381 18.4462C317.625 18.7196 317.765 19.0884 317.771 19.475C317.777 19.8615 317.649 20.2356 317.413 20.5185L299.545 40.5127C299.296 40.7926 298.957 40.95 298.603 40.9504V40.9504ZM1202.46 284.114C1202.11 284.113 1201.77 283.956 1201.52 283.676L1183.59 263.562C1183.35 263.279 1183.22 262.905 1183.23 262.519C1183.24 262.132 1183.38 261.763 1183.62 261.49C1183.87 261.217 1184.2 261.06 1184.54 261.053C1184.89 261.046 1185.22 261.19 1185.47 261.453L1203.45 281.567C1203.64 281.779 1203.76 282.049 1203.81 282.343C1203.86 282.637 1203.83 282.941 1203.73 283.216C1203.62 283.49 1203.44 283.723 1203.22 283.883C1202.99 284.043 1202.73 284.123 1202.46 284.114ZM1165.26 81.4659C1164.99 81.4657 1164.74 81.378 1164.52 81.2141C1164.3 81.0501 1164.13 80.8172 1164.03 80.5447C1163.93 80.2722 1163.9 79.9724 1163.95 79.6831C1164 79.3938 1164.13 79.1281 1164.32 78.9194L1182.29 58.8059C1182.54 58.5423 1182.88 58.3988 1183.22 58.4056C1183.57 58.4124 1183.9 58.569 1184.14 58.8424C1184.39 59.1158 1184.53 59.4846 1184.53 59.8712C1184.54 60.2577 1184.41 60.6318 1184.18 60.9147L1166.2 81.0283C1165.95 81.3082 1165.61 81.4656 1165.26 81.4659ZM1144.3 507.103C1144.03 507.103 1143.78 507.016 1143.56 506.852C1143.34 506.688 1143.17 506.455 1143.07 506.182C1142.97 505.91 1142.94 505.61 1142.99 505.321C1143.04 505.031 1143.17 504.766 1143.35 504.557L1161.36 484.473C1161.62 484.21 1161.95 484.066 1162.3 484.073C1162.64 484.08 1162.97 484.236 1163.22 484.51C1163.46 484.783 1163.6 485.152 1163.61 485.538C1163.61 485.925 1163.48 486.299 1163.25 486.582L1145.27 506.696C1145.14 506.834 1144.99 506.941 1144.82 507.011C1144.65 507.081 1144.48 507.113 1144.3 507.103V507.103ZM103.336 588.184C103.073 588.184 102.815 588.096 102.596 587.932C102.377 587.768 102.206 587.536 102.106 587.263C102.005 586.991 101.978 586.691 102.03 586.401C102.081 586.112 102.208 585.846 102.394 585.638L120.404 565.524C120.526 565.378 120.673 565.26 120.837 565.178C121.001 565.097 121.177 565.053 121.356 565.05C121.535 565.046 121.713 565.083 121.879 565.158C122.045 565.233 122.196 565.345 122.323 565.486C122.449 565.628 122.549 565.797 122.616 565.983C122.683 566.168 122.716 566.367 122.713 566.568C122.71 566.768 122.671 566.966 122.598 567.149C122.525 567.332 122.42 567.496 122.289 567.633L104.314 587.747C104.186 587.89 104.034 588.003 103.866 588.078C103.697 588.153 103.517 588.189 103.336 588.184V588.184Z"
          fill="#A0AEC0"
        />
        <path
          d="M104.741 385.616H49.626C49.2723 385.616 48.9332 385.459 48.6831 385.179C48.433 384.899 48.2926 384.52 48.2926 384.124C48.2926 383.728 48.433 383.349 48.6831 383.069C48.9332 382.789 49.2723 382.632 49.626 382.632H104.741C106.748 382.657 108.739 382.235 110.599 381.389C112.458 380.544 114.149 379.292 115.571 377.708C116.994 376.123 118.12 374.238 118.884 372.161C119.648 370.084 120.035 367.858 120.022 365.612L120.218 321.744C120.232 316.406 122.136 311.292 125.513 307.522C128.891 303.752 133.466 301.633 138.237 301.631H153.233C157.67 301.631 161.925 299.662 165.066 296.156C168.207 292.651 169.978 287.894 169.99 282.93C169.99 282.534 170.13 282.154 170.38 281.875C170.63 281.595 170.97 281.438 171.323 281.438C171.677 281.438 172.016 281.595 172.266 281.875C172.516 282.154 172.657 282.534 172.657 282.93C172.645 288.685 170.593 294.201 166.952 298.266C163.311 302.332 158.377 304.615 153.233 304.615H138.245C134.178 304.615 130.276 306.42 127.396 309.635C124.516 312.85 122.894 317.212 122.884 321.764L122.689 365.622C122.672 370.935 120.774 376.023 117.409 379.771C114.044 383.519 109.489 385.621 104.741 385.616V385.616ZM85.7974 486.84C85.4437 486.84 85.1046 486.683 84.8545 486.403C84.6044 486.124 84.4639 485.744 84.4639 485.348C84.4639 484.953 84.6044 484.573 84.8545 484.293C85.1046 484.013 85.4437 483.856 85.7974 483.856C90.1929 483.833 94.4006 481.859 97.497 478.368C100.593 474.876 102.326 470.153 102.314 465.235C102.314 464.839 102.455 464.46 102.705 464.18C102.955 463.9 103.294 463.743 103.647 463.743C104.001 463.743 104.34 463.9 104.59 464.18C104.84 464.46 104.981 464.839 104.981 465.235C104.99 470.944 102.976 476.425 99.3802 480.475C95.7841 484.525 90.8995 486.814 85.7974 486.84V486.84ZM275.082 25.9C273.937 25.9 272.818 25.5202 271.866 24.8086C270.915 24.0971 270.173 23.0857 269.735 21.9024C269.297 20.7191 269.182 19.4171 269.406 18.1609C269.629 16.9047 270.18 15.7509 270.989 14.8452C271.799 13.9396 272.83 13.3228 273.953 13.073C275.075 12.8231 276.239 12.9513 277.296 13.4415C278.354 13.9316 279.257 14.7616 279.893 15.8265C280.529 16.8915 280.869 18.1435 280.869 19.4243C280.866 21.1409 280.256 22.7865 279.171 24.0004C278.086 25.2143 276.616 25.8974 275.082 25.9V25.9ZM275.082 15.9526C274.464 15.9526 273.861 16.1574 273.348 16.5411C272.835 16.9247 272.435 17.47 272.199 18.108C271.963 18.746 271.901 19.448 272.021 20.1253C272.142 20.8026 272.439 21.4247 272.875 21.913C273.312 22.4013 273.868 22.7339 274.473 22.8686C275.078 23.0033 275.705 22.9342 276.276 22.6699C276.846 22.4056 277.333 21.9581 277.676 21.3839C278.019 20.8098 278.202 20.1347 278.202 19.4442C278.202 18.5182 277.873 17.6301 277.288 16.9753C276.703 16.3205 275.909 15.9526 275.082 15.9526ZM1224.2 127.144C1223.05 127.144 1221.93 126.764 1220.98 126.053C1220.03 125.341 1219.29 124.33 1218.85 123.147C1218.41 121.963 1218.3 120.661 1218.52 119.405C1218.74 118.149 1219.29 116.995 1220.1 116.089C1220.91 115.184 1221.94 114.567 1223.07 114.317C1224.19 114.067 1225.35 114.195 1226.41 114.686C1227.47 115.176 1228.37 116.006 1229.01 117.071C1229.64 118.136 1229.98 119.388 1229.98 120.668C1229.98 122.385 1229.37 124.031 1228.29 125.245C1227.2 126.458 1225.73 127.142 1224.2 127.144ZM1224.2 117.197C1223.58 117.197 1222.98 117.402 1222.46 117.785C1221.95 118.169 1221.55 118.714 1221.31 119.352C1221.08 119.99 1221.02 120.692 1221.14 121.369C1221.26 122.047 1221.55 122.669 1221.99 123.157C1222.43 123.645 1222.98 123.978 1223.59 124.113C1224.19 124.247 1224.82 124.178 1225.39 123.914C1225.96 123.65 1226.45 123.202 1226.79 122.628C1227.13 122.054 1227.32 121.379 1227.32 120.688C1227.32 120.228 1227.24 119.772 1227.08 119.346C1226.93 118.92 1226.7 118.533 1226.41 118.207C1226.12 117.88 1225.77 117.621 1225.39 117.445C1225.01 117.268 1224.61 117.177 1224.2 117.177V117.197ZM1214 410.793C1212.86 410.793 1211.74 410.413 1210.78 409.702C1209.83 408.99 1209.09 407.979 1208.65 406.795C1208.21 405.612 1208.1 404.31 1208.32 403.054C1208.55 401.798 1209.1 400.644 1209.91 399.738C1210.72 398.833 1211.75 398.216 1212.87 397.966C1213.99 397.716 1215.16 397.844 1216.21 398.334C1217.27 398.825 1218.18 399.655 1218.81 400.719C1219.45 401.784 1219.79 403.036 1219.79 404.317C1219.79 406.035 1219.18 407.682 1218.09 408.896C1217.01 410.111 1215.53 410.793 1214 410.793V410.793ZM1214 400.846C1213.38 400.846 1212.78 401.05 1212.27 401.434C1211.75 401.818 1211.35 402.363 1211.12 403.001C1210.88 403.639 1210.82 404.341 1210.94 405.018C1211.06 405.696 1211.36 406.318 1211.79 406.806C1212.23 407.294 1212.79 407.627 1213.39 407.762C1214 407.896 1214.62 407.827 1215.19 407.563C1215.76 407.299 1216.25 406.851 1216.59 406.277C1216.94 405.703 1217.12 405.028 1217.12 404.337C1217.12 403.878 1217.04 403.423 1216.88 402.998C1216.73 402.573 1216.5 402.187 1216.21 401.862C1215.92 401.536 1215.57 401.278 1215.2 401.102C1214.82 400.926 1214.41 400.836 1214 400.836V400.846ZM1095.38 613.44C1094.23 613.44 1093.11 613.061 1092.16 612.349C1091.21 611.637 1090.47 610.626 1090.03 609.443C1089.59 608.259 1089.48 606.957 1089.7 605.701C1089.93 604.445 1090.48 603.291 1091.29 602.386C1092.1 601.48 1093.13 600.863 1094.25 600.613C1095.37 600.363 1096.54 600.492 1097.59 600.982C1098.65 601.472 1099.55 602.302 1100.19 603.367C1100.83 604.432 1101.17 605.684 1101.17 606.965C1101.16 608.681 1100.55 610.327 1099.47 611.541C1098.38 612.755 1096.91 613.438 1095.38 613.44V613.44ZM1095.38 603.493C1094.76 603.493 1094.16 603.698 1093.64 604.081C1093.13 604.465 1092.73 605.01 1092.5 605.648C1092.26 606.286 1092.2 606.988 1092.32 607.666C1092.44 608.343 1092.74 608.965 1093.17 609.453C1093.61 609.942 1094.16 610.274 1094.77 610.409C1095.37 610.544 1096 610.475 1096.57 610.21C1097.14 609.946 1097.63 609.499 1097.97 608.924C1098.32 608.35 1098.5 607.675 1098.5 606.985C1098.5 606.525 1098.42 606.07 1098.26 605.645C1098.11 605.221 1097.88 604.835 1097.59 604.509C1097.3 604.184 1096.95 603.926 1096.57 603.75C1096.2 603.574 1095.79 603.483 1095.38 603.483V603.493ZM1216.48 182.999C1216.13 182.999 1215.79 182.841 1215.54 182.562C1215.29 182.282 1215.15 181.902 1215.15 181.506C1215.15 181.111 1215.29 180.731 1215.54 180.451C1215.79 180.172 1216.13 180.014 1216.48 180.014C1220.89 180.009 1225.12 178.045 1228.24 174.554C1231.36 171.063 1233.12 166.33 1233.12 161.393C1233.12 160.997 1233.26 160.618 1233.51 160.338C1233.76 160.058 1234.1 159.901 1234.45 159.901C1234.81 159.901 1235.15 160.058 1235.4 160.338C1235.65 160.618 1235.79 160.997 1235.79 161.393C1235.78 167.121 1233.74 172.612 1230.12 176.662C1226.51 180.712 1221.6 182.991 1216.48 182.999V182.999ZM998.687 61.3026C998.333 61.3026 997.994 61.1454 997.744 60.8656C997.494 60.5858 997.353 60.2063 997.353 59.8105C997.358 54.074 999.397 48.574 1003.02 44.5177C1006.65 40.4614 1011.56 38.1803 1016.69 38.175C1017.04 38.175 1017.38 38.3322 1017.63 38.6121C1017.88 38.8919 1018.02 39.2714 1018.02 39.6671C1018.02 40.0629 1017.88 40.4424 1017.63 40.7222C1017.38 41.002 1017.04 41.1592 1016.69 41.1592C1012.27 41.1645 1008.03 43.1312 1004.91 46.6279C1001.78 50.1245 1000.03 54.8655 1000.02 59.8105C1000.02 60.2063 999.88 60.5858 999.63 60.8656C999.38 61.1454 999.041 61.3026 998.687 61.3026ZM1178.07 39.5975C1177.71 39.5975 1177.38 39.4403 1177.13 39.1605C1176.88 38.8807 1176.73 38.5011 1176.73 38.1054C1176.75 32.7655 1178.65 27.6486 1182.03 23.8764C1185.41 20.1042 1189.98 17.9845 1194.75 17.9819H1278.32C1278.67 17.9819 1279.01 18.1391 1279.26 18.4189C1279.51 18.6988 1279.65 19.0783 1279.65 19.474C1279.65 19.8697 1279.51 20.2493 1279.26 20.5291C1279.01 20.8089 1278.67 20.9661 1278.32 20.9661H1194.75C1192.74 20.9609 1190.74 21.4003 1188.87 22.2593C1187.01 23.1183 1185.31 24.3801 1183.88 25.9725C1182.45 27.565 1181.32 29.4569 1180.54 31.5404C1179.76 33.6239 1179.36 35.858 1179.36 38.1153C1179.36 38.5009 1179.22 38.8705 1178.98 39.1468C1178.74 39.4232 1178.41 39.5847 1178.07 39.5975V39.5975ZM1277.35 446.424H1259.15C1254.37 446.419 1249.79 444.292 1246.41 440.51C1243.03 436.728 1241.13 431.6 1241.12 426.251V344.434C1241.12 344.038 1241.26 343.659 1241.51 343.379C1241.76 343.099 1242.1 342.942 1242.45 342.942C1242.81 342.942 1243.15 343.099 1243.4 343.379C1243.65 343.659 1243.79 344.038 1243.79 344.434V426.251C1243.79 430.808 1245.41 435.177 1248.29 438.4C1251.17 441.622 1255.08 443.435 1259.15 443.44H1277.36C1277.71 443.441 1278.05 443.6 1278.3 443.881C1278.55 444.161 1278.69 444.541 1278.68 444.937C1278.68 445.333 1278.54 445.712 1278.29 445.991C1278.04 446.27 1277.7 446.426 1277.35 446.424V446.424ZM1159.71 161.99C1159.36 161.99 1159.02 161.833 1158.77 161.553C1158.52 161.273 1158.38 160.893 1158.38 160.498C1158.37 155.948 1156.75 151.589 1153.87 148.376C1150.99 145.163 1147.09 143.358 1143.03 143.358L1088.07 143.438C1083.3 143.43 1078.73 141.309 1075.35 137.538C1071.97 133.767 1070.07 128.653 1070.05 123.314L1069.8 -4.52896C1069.8 -4.92469 1069.94 -5.30421 1070.19 -5.58403C1070.44 -5.86386 1070.78 -6.02106 1071.14 -6.02106C1071.49 -6.02106 1071.83 -5.86386 1072.08 -5.58403C1072.33 -5.30421 1072.47 -4.92469 1072.47 -4.52896L1072.64 123.314C1072.65 127.862 1074.28 132.218 1077.15 135.43C1080.03 138.642 1083.93 140.448 1087.99 140.454L1142.95 140.374C1147.72 140.377 1152.29 142.496 1155.67 146.269C1159.05 150.041 1160.95 155.158 1160.96 160.498C1160.96 160.893 1160.82 161.273 1160.57 161.553C1160.32 161.833 1159.99 161.99 1159.63 161.99H1159.71Z"
          fill="#A0AEC0"
        />
        <path
          d="M1242.45 352.959C1242.09 352.959 1241.75 352.802 1241.5 352.522C1241.25 352.242 1241.11 351.863 1241.11 351.467V260.837C1241.11 256.28 1239.49 251.912 1236.61 248.692C1233.73 245.471 1229.82 243.66 1225.75 243.658H1176.29C1171.51 243.652 1166.93 241.525 1163.55 237.743C1160.17 233.961 1158.27 228.833 1158.26 223.484V216.263L1158.42 119.107C1158.43 113.767 1160.34 108.65 1163.72 104.878C1167.09 101.106 1171.67 98.9858 1176.44 98.9832L1283.6 99.0628C1283.95 99.0628 1284.29 99.22 1284.54 99.4998C1284.79 99.7797 1284.93 100.159 1284.93 100.555C1284.93 100.951 1284.79 101.33 1284.54 101.61C1284.29 101.89 1283.95 102.047 1283.6 102.047L1176.44 101.967C1172.37 101.967 1168.47 103.773 1165.59 106.988C1162.71 110.203 1161.09 114.565 1161.08 119.117L1160.9 223.494C1160.91 228.051 1162.53 232.419 1165.41 235.639C1168.29 238.86 1172.19 240.671 1176.26 240.673H1225.72C1230.5 240.679 1235.08 242.804 1238.46 246.584C1241.84 250.364 1243.75 255.49 1243.75 260.837V351.467C1243.75 351.858 1243.62 352.233 1243.37 352.512C1243.13 352.791 1242.79 352.951 1242.45 352.959V352.959ZM163.429 203.112C163.076 203.112 162.737 202.955 162.487 202.675C162.236 202.395 162.096 202.016 162.096 201.62C162.091 196.683 160.336 191.95 157.217 188.459C154.097 184.967 149.867 183.004 145.455 182.999C145.101 182.999 144.762 182.841 144.512 182.562C144.262 182.282 144.121 181.902 144.121 181.506C144.121 181.111 144.262 180.731 144.512 180.451C144.762 180.172 145.101 180.014 145.455 180.014C150.573 180.022 155.48 182.301 159.1 186.351C162.719 190.401 164.756 195.892 164.763 201.62C164.763 202.016 164.622 202.395 164.372 202.675C164.122 202.955 163.783 203.112 163.429 203.112V203.112Z"
          fill="#A0AEC0"
        />
      </g>
    </g>
  </g>
  <defs>
    <clipPath id="clip0">
      <rect width="1280" height="640" fill="white" />
    </clipPath>
    <clipPath id="clip1">
      <rect x="-5" y="-10" width="1290" height="650" fill="white" />
    </clipPath>
  </defs>
</svg>
